<svg id="Layer_1" data-name="Layer 1" xmlns="http://www.w3.org/2000/svg" viewBox="0 0 70 70"><title>arrow-down</title><path d="M35,60.5A25.5,25.5,0,1,1,60.5,35,25.53,25.53,0,0,1,35,60.5Zm0-50A24.5,24.5,0,1,0,59.5,35,24.53,24.53,0,0,0,35,10.5Z"/><path d="M35,61A26,26,0,1,1,61,35,26,26,0,0,1,35,61ZM10,35a25,25,0,0,0,50,0,25,25,0,0,1-50,0ZM35,11A24,24,0,1,0,59,35,24,24,0,0,0,35,11Z"/><rect x="31.07" y="35.97" width="21.67" height="1" transform="translate(-13.51 40.32) rotate(-45)"/><rect x="30.57" y="35.47" width="22.67" height="2" transform="translate(-13.51 40.32) rotate(-45)"/><rect x="26.49" y="25.64" width="1" height="21.67" transform="translate(-17.88 29.77) rotate(-45)"/><rect x="25.99" y="25.14" width="2" height="22.67" transform="translate(-17.88 29.77) rotate(-45)"/></svg>