<svg id="Layer_1" data-name="Layer 1" xmlns="http://www.w3.org/2000/svg" viewBox="0 0 70 70"><title>arrow-right</title><path d="M37.34,59.66a25.5,25.5,0,1,1,25.5-25.5A25.53,25.53,0,0,1,37.34,59.66Zm0-50a24.5,24.5,0,1,0,24.5,24.5A24.53,24.53,0,0,0,37.34,9.66Z"/><path d="M37.34,60.16a26,26,0,1,1,26-26A26,26,0,0,1,37.34,60.16Zm-25-26a25,25,0,0,0,50,0,25,25,0,0,1-50,0Zm25-24a24,24,0,1,0,24,24A24,24,0,0,0,37.34,10.16Z"/><rect x="38.31" y="16.41" width="1" height="21.67" transform="translate(-7.9 35.43) rotate(-45)"/><rect x="37.81" y="15.91" width="2" height="22.67" transform="translate(-7.9 35.43) rotate(-45)"/><rect x="27.98" y="41.66" width="21.67" height="1" transform="translate(-18.45 39.79) rotate(-45)"/><rect x="27.48" y="41.16" width="22.67" height="2" transform="translate(-18.45 39.79) rotate(-45)"/></svg>