<svg id="Layer_1" data-name="Layer 1" xmlns="http://www.w3.org/2000/svg" viewBox="0 0 70 70"><title>audio</title><polygon points="23.14 51.44 22.14 51.44 22.14 19.98 57.21 14.01 57.21 45.64 56.21 45.64 56.21 15.19 23.14 20.82 23.14 51.44"/><path d="M23.64,51.94h-2V19.55l36.07-6.14V46.14h-2V15.78L23.64,21.24Zm33.07-6.8V14.6L33,18.64l23.76-4Z"/><rect x="22.41" y="25.61" width="34.52" height="1" transform="translate(-3.71 6.78) rotate(-9.33)"/><rect x="21.91" y="25.11" width="35.52" height="2" transform="translate(-3.71 6.78) rotate(-9.33)"/><path d="M52,50.94a5.18,5.18,0,1,1,5.18-5.18A5.18,5.18,0,0,1,52,50.94Zm0-9.35a4.18,4.18,0,1,0,4.18,4.17A4.17,4.17,0,0,0,52,41.59Z"/><path d="M52,51.44a5.68,5.68,0,1,1,5.68-5.68A5.68,5.68,0,0,1,52,51.44Zm-4.67-5.68a4.68,4.68,0,1,0,9.35,0,4.68,4.68,0,1,1-9.35,0ZM52,42.09a3.68,3.68,0,1,0,3.68,3.67A3.68,3.68,0,0,0,52,42.09Z"/><path d="M18,56.62a5.18,5.18,0,1,1,5.17-5.18A5.18,5.18,0,0,1,18,56.62Zm0-9.35a4.18,4.18,0,1,0,4.17,4.17A4.18,4.18,0,0,0,18,47.27Z"/><path d="M18,57.12a5.68,5.68,0,1,1,5.67-5.68A5.69,5.69,0,0,1,18,57.12Zm-4.68-5.68a4.68,4.68,0,1,0,9.35,0,4.68,4.68,0,1,1-9.35,0ZM18,47.77a3.68,3.68,0,1,0,3.67,3.67A3.68,3.68,0,0,0,18,47.77Z"/></svg>