<svg id="Layer_1" data-name="Layer 1" xmlns="http://www.w3.org/2000/svg" viewBox="0 0 70 70"><title>audio-mute</title><polygon points="23.14 49.1 22.14 49.1 22.14 17.64 52.77 12.42 52.94 13.41 23.14 18.48 23.14 49.1"/><path d="M23.64,49.6h-2V17.22l31.54-5.37.33,2L23.64,18.9ZM52.36,13,35.18,15.93Z"/><rect x="55.34" y="11.98" width="0.12" height="1" transform="translate(-1.32 9.71) rotate(-9.9)"/><polygon points="57.21 43.31 56.21 43.31 56.21 12.85 55.54 12.97 55.37 11.98 57.21 11.67 57.21 43.31"/><polygon points="57.71 43.81 55.71 43.81 55.71 13.45 55.13 13.54 54.79 11.57 57.71 11.08 57.71 43.81"/><rect x="47.29" y="21.24" width="9.48" height="1" transform="translate(-2.84 8.73) rotate(-9.33)"/><rect x="46.79" y="20.74" width="10.48" height="2" transform="translate(-2.84 8.73) rotate(-9.33)"/><rect x="22.5" y="24.33" width="21.61" height="1" transform="translate(-3.59 5.73) rotate(-9.33)"/><rect x="22" y="23.83" width="22.61" height="2" transform="translate(-3.59 5.73) rotate(-9.33)"/><path d="M52,48.6a5.18,5.18,0,1,1,5.18-5.17A5.18,5.18,0,0,1,52,48.6Zm0-9.35a4.18,4.18,0,1,0,4.18,4.18A4.18,4.18,0,0,0,52,39.25Z"/><path d="M52,49.1a5.68,5.68,0,1,1,5.68-5.67A5.68,5.68,0,0,1,52,49.1Zm-4.67-5.67a4.68,4.68,0,0,0,9.35,0,4.68,4.68,0,0,1-9.35,0ZM52,39.75a3.68,3.68,0,1,0,3.68,3.68A3.68,3.68,0,0,0,52,39.75Z"/><path d="M18,54.28a5.17,5.17,0,1,1,.64,0h0A4.58,4.58,0,0,1,18,54.28Zm0-9.35a4.18,4.18,0,1,0,0,8.35,4.53,4.53,0,0,0,.52,0h0A4.18,4.18,0,0,0,18,44.93Z"/><path d="M18,54.78a5.64,5.64,0,1,1,.7,0A5.37,5.37,0,0,1,18,54.78ZM13.29,49.1A4.69,4.69,0,0,0,18,53.78a4.53,4.53,0,0,0,.52,0,4.53,4.53,0,0,1-.52,0A4.69,4.69,0,0,1,13.29,49.1Zm9.35,0a4.69,4.69,0,0,1-2.34,4.06A4.69,4.69,0,0,0,22.64,49.1ZM18,45.43a3.68,3.68,0,1,0,0,7.35,3.55,3.55,0,0,0,.46,0A3.67,3.67,0,0,0,18,45.43Z"/><rect x="8.47" y="56.75" width="9.83" height="1" transform="translate(-38.16 28.96) rotate(-48.09)"/><rect x="7.97" y="56.25" width="10.83" height="2" transform="translate(-38.16 28.96) rotate(-48.09)"/><rect x="9.85" y="37.82" width="41.06" height="1" transform="translate(-18.43 35.33) rotate(-48.09)"/><rect x="9.35" y="37.32" width="42.06" height="2" transform="translate(-18.43 35.33) rotate(-48.09)"/><rect x="41.83" y="17.45" width="13.71" height="1" transform="translate(2.81 42.19) rotate(-48.09)"/><rect x="41.33" y="16.95" width="14.71" height="2" transform="translate(2.81 42.19) rotate(-48.09)"/><rect x="51.24" y="7.79" width="12.24" height="1" transform="translate(12.87 45.44) rotate(-48.09)"/><rect x="50.74" y="7.29" width="13.24" height="2" transform="translate(12.87 45.44) rotate(-48.09)"/></svg>