<svg id="Layer_1" data-name="Layer 1" xmlns="http://www.w3.org/2000/svg" viewBox="0 0 70 70"><title>backspace</title><path d="M55.52,48.54H18.23L8.74,34.4l9.49-14.15H55.52Zm-36.75-1H54.52V21.25H18.77L9.94,34.4Z"/><path d="M56,49H18L8.13,34.4,18,19.75H56ZM18.5,48H55v0H18.5l-1.09-1.62ZM19,47H54V21.75H19L10.54,34.4ZM18.5,20.75l-1.42,2.12Z"/><rect x="39.7" y="23.22" width="1" height="22.88" transform="translate(-12.76 38.12) rotate(-44.51)"/><rect x="39.2" y="22.72" width="2" height="23.88" transform="translate(-12.76 38.12) rotate(-44.51)"/><rect x="28.76" y="34.15" width="22.88" height="1" transform="translate(-12.7 39.01) rotate(-45.47)"/><rect x="28.26" y="33.65" width="23.88" height="2" transform="translate(-12.7 39.01) rotate(-45.47)"/></svg>