<svg id="Layer_1" data-name="Layer 1" xmlns="http://www.w3.org/2000/svg" viewBox="0 0 70 70"><title>bell</title><path d="M28.33,53.17c-14.64,0-14.73-.66-14.79-1.12s.56-.73.84-.8c3.82-1.06,4.5-6,4.5-6s-.52-11-.72-18.76c-.19-7.2,7.71-9.29,9.75-9.71-.11-1.3-.18-4.91,1.91-7.17a6.36,6.36,0,0,1,5.36-1.82l-.06,1a5.46,5.46,0,0,0-4.57,1.51C28.34,12.64,28.94,17,29,17.08l.07.49-.5.07c-.39.06-9.55,1.46-9.36,8.79.2,7.77.72,18.71.72,18.82,0,.29-.65,4.89-4.24,6.59,3.55.32,13.21.36,19.5.29v1C32.59,53.16,30.33,53.17,28.33,53.17Z"/><path d="M41.67,53.17c-2,0-4.26,0-6.82,0v-1c6.28.07,16,0,19.5-.29-3.59-1.69-4.21-6.29-4.24-6.5s.52-11.14.72-18.91c.19-7.35-9.26-8.77-9.36-8.79L41,17.57l.06-.49s.6-4.45-1.6-6.83a5.46,5.46,0,0,0-4.57-1.51l-.06-1a6.36,6.36,0,0,1,5.36,1.82c2.09,2.26,2,5.87,1.91,7.17,2,.42,9.94,2.51,9.75,9.71-.2,7.79-.72,18.74-.72,18.85h0s.69,4.89,4.5,6c.28.07.92.25.84.8S56.3,53.17,41.67,53.17Z"/><path d="M35.14,62.55c-3.64-.08-6.21-1.14-7.64-3.14-2.09-2.93-.92-6.74-.87-6.9l1,.3s-1.07,3.51.73,6c1.24,1.73,3.54,2.64,6.84,2.72Z"/><path d="M34.86,62.55l0-1c3.3-.08,5.61-1,6.84-2.72,1.81-2.53.74-6,.73-6l1-.3c.05.16,1.22,4-.87,6.9C41.07,61.41,38.5,62.47,34.86,62.55Z"/></svg>