<svg id="Layer_1" data-name="Layer 1" xmlns="http://www.w3.org/2000/svg" viewBox="0 0 70 70"><title>bell</title><path d="M28.33,53.17c-14.64,0-14.73-.66-14.79-1.12s.56-.73.84-.8c3.82-1.06,4.5-6,4.5-6s-.52-11-.72-18.76c-.19-7.2,7.71-9.29,9.75-9.71-.11-1.3-.18-4.91,1.91-7.17a6.36,6.36,0,0,1,5.36-1.82l-.06,1a5.46,5.46,0,0,0-4.57,1.51C28.34,12.64,28.94,17,29,17.08l.07.49-.5.07c-.39.06-9.55,1.46-9.36,8.79.2,7.77.72,18.71.72,18.82,0,.29-.65,4.89-4.24,6.59,3.55.32,13.21.36,19.5.29v1C32.59,53.16,30.33,53.17,28.33,53.17Z"/><path d="M28.33,53.67C13.26,53.67,13.17,53,13,52.12c-.06-.45.1-1,1.21-1.36,3.48-1,4.13-5.56,4.14-5.61h0c-.14-1.87-.61-13.91-.73-18.69-.19-7.18,7.32-9.55,9.72-10.11-.08-1.68.06-5,2.07-7.12a6.86,6.86,0,0,1,5.76-2l.5,0-.13,2-.49,0a5,5,0,0,0-4.17,1.35c-2,2.21-1.49,6.37-1.48,6.42l.14,1-1,.14c-.37.05-9.11,1.38-8.93,8.27.19,7.14.63,16.89.72,18.77v.12a10.12,10.12,0,0,1-3.18,6.14c4.09.22,11.8.26,17.94.19h.5l0,2h-.5C32.59,53.66,30.33,53.67,28.33,53.67ZM17.57,52.46c2.93.17,8.1.27,17.08.18h0C28.8,52.69,21.66,52.65,17.57,52.46Zm1.6-6.22c-.42,1.58-1.62,4.65-4.66,5.49-.41.11-.48.2-.48.25l.06,0,1.34-.63C17.82,50.26,18.8,47.68,19.17,46.24ZM18.66,25.9c0,.18,0,.36,0,.54.1,3.86.27,8.41.42,12.05-.15-3.7-.32-8.24-.42-12C18.65,26.26,18.66,26.08,18.66,25.9ZM29.1,11.62a11.58,11.58,0,0,0-.7,5.08l0,.44-.2,0,.21,0h0A11.92,11.92,0,0,1,29.1,11.62Zm5.44-3.39a6.21,6.21,0,0,0-3.33.84,6.15,6.15,0,0,1,3.44-.84h-.11Z"/><path d="M41.67,53.17c-2,0-4.26,0-6.82,0v-1c6.28.07,16,0,19.5-.29-3.59-1.69-4.21-6.29-4.24-6.5s.52-11.14.72-18.91c.19-7.35-9.26-8.77-9.36-8.79L41,17.57l.06-.49s.6-4.45-1.6-6.83a5.46,5.46,0,0,0-4.57-1.51l-.06-1a6.36,6.36,0,0,1,5.36,1.82c2.09,2.26,2,5.87,1.91,7.17,2,.42,9.94,2.51,9.75,9.71-.2,7.79-.72,18.74-.72,18.85h0s.69,4.89,4.5,6c.28.07.92.25.84.8S56.3,53.17,41.67,53.17Z"/><path d="M41.67,53.67c-2,0-4.26,0-6.83,0h-.5l0-2h.5c5.17.06,13.57,0,17.94-.19a10.07,10.07,0,0,1-3.17-6c0-.1,0-.49,0-1.15.12-2.83.5-11.46.67-17.84.18-6.86-8.84-8.26-8.93-8.27l-1-.14.14-1s.53-4.25-1.48-6.42a5,5,0,0,0-4.17-1.35l-.49,0-.13-2,.5,0a6.86,6.86,0,0,1,5.76,2c2,2.17,2.15,5.44,2.07,7.12,2.4.56,9.91,2.93,9.72,10.11-.2,7.54-.68,17.92-.72,18.81.15.81,1,4.63,4.13,5.49,1.11.31,1.27.91,1.21,1.36C56.83,53,56.74,53.67,41.67,53.67Zm-6.32-1c8.63.08,13.74,0,16.74-.16-4.14.18-11.05.21-16.74.16ZM50.71,45.8c.24,1.17,1.13,4.3,3.86,5.59l1.32.62L56,52a1.13,1.13,0,0,0-.51-.22c-3.36-.93-4.47-4.55-4.78-5.93ZM42.45,17.33c2.46.59,9.06,2.75,8.89,9.11-.07,2.82-.19,6.08-.3,9.09.11-3,.23-6.25.3-9.09C51.51,20.12,45.09,18,42.45,17.33Zm-.9-.18h0l.38.07-.37-.08,0-.44c.08-1,.2-4.64-1.78-6.79l-.16-.16.15.16c2.33,2.51,1.77,7,1.74,7.23ZM35.46,8.23h0Z"/><path d="M35.14,62.55c-3.64-.08-6.21-1.14-7.64-3.14-2.09-2.93-.92-6.74-.87-6.9l1,.3s-1.07,3.51.73,6c1.24,1.73,3.54,2.64,6.84,2.72Z"/><path d="M35.63,63.06h-.5c-3.81-.09-6.51-1.22-8-3.35-2.24-3.13-1-7.17-.94-7.35l.15-.47,1.9.6-.15.47s-1,3.3.67,5.59C29.87,60.13,32,61,35.17,61.05h.5Zm-2.71-1.21a15.07,15.07,0,0,0,1.73.18h0A15.07,15.07,0,0,1,32.92,61.85Zm0,0h0ZM27,53.14a7.72,7.72,0,0,0,.93,6l.05.06,0,0a7.74,7.74,0,0,1-.93-6Z"/><path d="M34.86,62.55l0-1c3.3-.08,5.61-1,6.84-2.72,1.81-2.53.74-6,.73-6l1-.3c.05.16,1.22,4-.87,6.9C41.07,61.41,38.5,62.47,34.86,62.55Z"/><path d="M34.37,63.06l0-2h.5c3.14-.07,5.31-.92,6.44-2.51,1.65-2.3.68-5.55.67-5.59l-.15-.47,1.9-.6.15.47c.06.18,1.3,4.22-.94,7.35-1.52,2.13-4.22,3.26-8,3.35Zm1-1h0c.49,0,1-.07,1.4-.13C36.31,62,35.84,62,35.35,62ZM43,53.14A7.8,7.8,0,0,1,42.18,59,7.77,7.77,0,0,0,43,53.14Z"/></svg>