<svg id="Layer_1" data-name="Layer 1" xmlns="http://www.w3.org/2000/svg" viewBox="0 0 70 70"><title>book</title><path d="M10,59V15.44l.22-.15a25.47,25.47,0,0,1,26.07,0l.25.15V59l-.73-.36a27.85,27.85,0,0,0-25.06,0Zm13.3-4.41a28.79,28.79,0,0,1,12.24,2.74V16A24.45,24.45,0,0,0,11,16V57.32A29.17,29.17,0,0,1,23.27,54.61Z"/><path d="M9,60.77V14.9l.66-.44c.13-.09,12.92-8.43,27.14-.05l.74.43V60.56l-2.17-1.07a27,27,0,0,0-24.12-.05Zm14.3-7.16a29.7,29.7,0,0,1,11.24,2.21V16.57a23.29,23.29,0,0,0-22.54,0V55.79A30.74,30.74,0,0,1,23.27,53.61Z"/><path d="M36.44,59V15.44l.22-.15a25.46,25.46,0,0,1,26.08,0l.24.15V59l-.72-.36a27.85,27.85,0,0,0-25.06,0Zm13.31-4.41A28.72,28.72,0,0,1,62,57.35V16a24.45,24.45,0,0,0-24.54,0V57.32A29.23,29.23,0,0,1,49.75,54.61Z"/><path d="M35.44,60.77V14.9l.66-.44a26.38,26.38,0,0,1,27.15-.05l.73.43V60.56l-2.16-1.07a27.1,27.1,0,0,0-24.12-.05Zm14.31-7.16A29.65,29.65,0,0,1,61,55.82V16.57a23.29,23.29,0,0,0-22.54,0V55.79A30.8,30.8,0,0,1,49.75,53.61Z"/><rect x="13.29" y="21.88" width="11.81" height="1"/><path d="M25.6,23.38H12.79v-2H25.6Zm-11.81-1h0Z"/><rect x="20.65" y="25.94" width="10.85" height="1"/><path d="M32,27.44H20.15v-2H32Zm-10.84-1h0Z"/><rect x="13.9" y="31" width="17.6" height="1"/><path d="M32,32.5H13.4v-2H32Zm-17.59-1h0Z"/><rect x="16.07" y="34.2" width="13.74" height="1"/><path d="M30.3,35.7H15.57v-2H30.3Zm-13.73-1h0Z"/><rect x="21.97" y="37.66" width="11.21" height="1"/><path d="M33.68,39.16H21.47v-2H33.68Zm-11.21-1h0Z"/><rect x="13.9" y="42.34" width="12.17" height="1"/><path d="M26.57,43.84H13.4v-2H26.57Zm-12.17-1h0Z"/><rect x="48.15" y="22.99" width="11.81" height="1"/><path d="M60.46,24.49H47.65v-2H60.46Zm-11.81-1h0Z"/><rect x="41.76" y="27.05" width="10.85" height="1"/><path d="M53.1,28.55H41.26v-2H53.1Zm-10.84-1h0Z"/><rect x="41.76" y="32.11" width="17.6" height="1"/><path d="M59.85,33.61H41.26v-2H59.85Zm-17.59-1h0Z"/><rect x="43.45" y="35.31" width="13.74" height="1"/><path d="M57.68,36.81H43v-2H57.68ZM44,35.81h0Z"/><rect x="40.07" y="38.76" width="11.21" height="1"/><path d="M51.78,40.26H39.57v-2H51.78Zm-11.21-1h0Z"/><rect x="47.18" y="43.45" width="12.17" height="1"/><path d="M59.85,45H46.68V43H59.85ZM47.68,44h0Z"/></svg>