<svg id="Layer_1" data-name="Layer 1" xmlns="http://www.w3.org/2000/svg" viewBox="0 0 70 70"><title>book</title><path d="M10,59V15.44l.22-.15a25.47,25.47,0,0,1,26.07,0l.25.15V59l-.73-.36a27.85,27.85,0,0,0-25.06,0Zm13.3-4.41a28.79,28.79,0,0,1,12.24,2.74V16A24.45,24.45,0,0,0,11,16V57.32A29.17,29.17,0,0,1,23.27,54.61Z"/><path d="M36.44,59V15.44l.22-.15a25.46,25.46,0,0,1,26.08,0l.24.15V59l-.72-.36a27.85,27.85,0,0,0-25.06,0Zm13.31-4.41A28.72,28.72,0,0,1,62,57.35V16a24.45,24.45,0,0,0-24.54,0V57.32A29.23,29.23,0,0,1,49.75,54.61Z"/><rect x="13.29" y="21.88" width="11.81" height="1"/><rect x="20.65" y="25.94" width="10.85" height="1"/><rect x="13.9" y="31" width="17.6" height="1"/><rect x="16.07" y="34.2" width="13.74" height="1"/><rect x="21.97" y="37.66" width="11.21" height="1"/><rect x="13.9" y="42.34" width="12.17" height="1"/><rect x="48.15" y="22.99" width="11.81" height="1"/><rect x="41.76" y="27.05" width="10.85" height="1"/><rect x="41.76" y="32.11" width="17.6" height="1"/><rect x="43.45" y="35.31" width="13.74" height="1"/><rect x="40.07" y="38.76" width="11.21" height="1"/><rect x="47.18" y="43.45" width="12.17" height="1"/></svg>