<svg id="Layer_1" data-name="Layer 1" xmlns="http://www.w3.org/2000/svg" viewBox="0 0 70 70"><title>bulb</title><path d="M34.84,47.71a15.5,15.5,0,1,1,15.5-15.5A15.52,15.52,0,0,1,34.84,47.71Zm0-30a14.5,14.5,0,1,0,14.5,14.5A14.52,14.52,0,0,0,34.84,17.71Z"/><path d="M34.84,48.21a16,16,0,1,1,16-16A16,16,0,0,1,34.84,48.21Zm-15-16a15,15,0,1,0,30,0,15,15,0,1,1-30,0Zm15-14a14,14,0,1,0,14,14A14,14,0,0,0,34.84,18.21Z"/><path d="M34.84,56.6a8.49,8.49,0,0,1-8.48-8.48,8.35,8.35,0,0,1,.57-3.06l.93.36a7.49,7.49,0,1,0,14.47,2.7,7.32,7.32,0,0,0-.51-2.7l.94-.37A8.49,8.49,0,0,1,34.84,56.6Z"/><path d="M34.84,57.1a9,9,0,0,1-8.38-12.22l.18-.47,1.87.72-.18.47a7,7,0,1,0,13,0l-.18-.47L43,44.41l.18.46A9,9,0,0,1,34.84,57.1Zm-8-9a8,8,0,0,0,8,8A8,8,0,0,1,26.86,48.12Zm15.6-2.41a8.09,8.09,0,0,1,.37,2.41,8.09,8.09,0,0,0-.37-2.41Zm-15.23,0a7.78,7.78,0,0,0-.37,2.41,7.78,7.78,0,0,1,.37-2.41Z"/><rect x="9.35" y="29.07" width="9.1" height="1"/><path d="M19,30.57H8.85v-2H19Zm-9.1-1h0Z"/><rect x="51.55" y="29.07" width="9.1" height="1"/><path d="M61.15,30.57H51.05v-2h10.1Zm-9.1-1h0Z"/><rect x="46.63" y="16.71" width="9.1" height="1" transform="translate(2.82 41.23) rotate(-45)"/><rect x="46.13" y="16.21" width="10.1" height="2" transform="translate(2.82 41.23) rotate(-45)"/><rect x="18.7" y="12.66" width="1" height="9.1" transform="translate(-6.55 18.62) rotate(-45)"/><rect x="18.2" y="12.16" width="2" height="10.1" transform="translate(-6.55 18.62) rotate(-45)"/><rect x="34.34" y="5.96" width="1" height="9.1"/><rect x="33.84" y="5.46" width="2" height="10.1"/></svg>