<svg id="Layer_1" data-name="Layer 1" xmlns="http://www.w3.org/2000/svg" viewBox="0 0 70 70"><title>calculator</title><path d="M46.56,57.56H25.7a6.88,6.88,0,0,1-6.87-6.87V17.37A6.88,6.88,0,0,1,25.7,10.5H46.56a6.88,6.88,0,0,1,6.87,6.87V50.69A6.88,6.88,0,0,1,46.56,57.56ZM25.7,11.5a5.88,5.88,0,0,0-5.87,5.87V50.69a5.88,5.88,0,0,0,5.87,5.87H46.56a5.87,5.87,0,0,0,5.87-5.87V17.37a5.87,5.87,0,0,0-5.87-5.87Z"/><path d="M46.56,58.06H25.7a7.38,7.38,0,0,1-7.37-7.37V17.37A7.38,7.38,0,0,1,25.7,10H46.56a7.37,7.37,0,0,1,7.37,7.37V50.69A7.38,7.38,0,0,1,46.56,58.06ZM19.33,50.69a6.38,6.38,0,0,0,6.37,6.37H46.56a6.38,6.38,0,0,0,6.37-6.37v0a6.38,6.38,0,0,1-6.37,6.37H25.7A6.38,6.38,0,0,1,19.33,50.69ZM25.7,12a5.38,5.38,0,0,0-5.37,5.37V50.69a5.38,5.38,0,0,0,5.37,5.37H46.56a5.38,5.38,0,0,0,5.37-5.37V17.37A5.38,5.38,0,0,0,46.56,12Z"/><rect x="23.17" y="16.26" width="25.5" height="6.35" rx="1.23"/><path d="M47.44,23.11h-23a1.73,1.73,0,0,1-1.73-1.73V17.49a1.73,1.73,0,0,1,1.73-1.73h23a1.74,1.74,0,0,1,1.73,1.73v3.89A1.74,1.74,0,0,1,47.44,23.11Zm-23-6.35a.73.73,0,0,0-.73.73v3.89a.73.73,0,0,0,.73.73h23a.73.73,0,0,0,.73-.73V17.49a.73.73,0,0,0-.73-.73Z"/><path d="M47.44,16.76a.73.73,0,0,1,.73.73v3.89a.73.73,0,0,1-.73.73h-23a.73.73,0,0,1-.73-.73V17.49a.73.73,0,0,1,.73-.73h23m0-1h-23a1.72,1.72,0,0,0-1.73,1.73v3.89a1.72,1.72,0,0,0,1.73,1.73h23a1.72,1.72,0,0,0,1.73-1.73V17.49a1.72,1.72,0,0,0-1.73-1.73Z"/><path d="M47.44,23.61h-23a2.23,2.23,0,0,1-2.23-2.23V17.49a2.23,2.23,0,0,1,2.23-2.23h23a2.23,2.23,0,0,1,2.23,2.23v3.89A2.23,2.23,0,0,1,47.44,23.61Zm-23-6.35a.23.23,0,0,0-.23.23v3.89a.23.23,0,0,0,.23.23h23a.23.23,0,0,0,.23-.23V17.49a.23.23,0,0,0-.23-.23Zm0-1a1.23,1.23,0,0,0-1.23,1.23v0a1.23,1.23,0,0,1,1.23-1.23h23a1.23,1.23,0,0,1,1.23,1.23,1.23,1.23,0,0,0-1.23-1.23Z"/><path d="M44.5,52.38a1,1,0,0,1-1-1.1V35.38a1,1,0,0,1,1-1.1h3.29a1,1,0,0,1,1,1.1v15.9a1,1,0,0,1-1,1.1Z"/><path d="M47.79,52.88H44.5A1.53,1.53,0,0,1,43,51.28V35.38a1.54,1.54,0,0,1,1.46-1.6h3.29a1.53,1.53,0,0,1,1.46,1.6v15.9A1.53,1.53,0,0,1,47.79,52.88ZM44.5,34.78a.55.55,0,0,0-.46.6v15.9a.55.55,0,0,0,.46.6h3.29a.55.55,0,0,0,.46-.6V35.38a.55.55,0,0,0-.46-.6Z"/><path d="M47.79,34.76a.58.58,0,0,1,.54.62v15.9a.58.58,0,0,1-.54.62H44.5a.58.58,0,0,1-.53-.62V35.38a.58.58,0,0,1,.53-.62h3.29m0-1H44.5a1.5,1.5,0,0,0-1.38,1.59v15.9a1.5,1.5,0,0,0,1.38,1.59h3.29a1.5,1.5,0,0,0,1.38-1.59V35.38a1.5,1.5,0,0,0-1.38-1.59Z"/><path d="M47.79,53.37H44.5a2,2,0,0,1-1.88-2.09V35.38a2,2,0,0,1,1.88-2.09h3.29a2,2,0,0,1,1.88,2.09v15.9A2,2,0,0,1,47.79,53.37ZM44.5,35.26a.31.31,0,0,0,0,.12v15.9a.17.17,0,0,0,0,.12h3.28a.25.25,0,0,0,0-.12V35.38a.15.15,0,0,0,0-.12Z"/><circle cx="25.56" cy="28.76" r="2"/><path d="M25.56,31.26a2.5,2.5,0,1,1,2.5-2.5A2.51,2.51,0,0,1,25.56,31.26Zm0-4a1.5,1.5,0,1,0,1.5,1.5A1.5,1.5,0,0,0,25.56,27.26Z"/><path d="M25.56,27.26a1.5,1.5,0,1,1-1.5,1.5,1.5,1.5,0,0,1,1.5-1.5m0-1a2.5,2.5,0,1,0,2.5,2.5,2.5,2.5,0,0,0-2.5-2.5Z"/><path d="M25.56,31.76a3,3,0,1,1,3-3A3,3,0,0,1,25.56,31.76Zm0-4a1,1,0,1,0,1,1A1,1,0,0,0,25.56,27.76Zm0-1a2,2,0,0,1,2,2,2,2,0,0,0-4,0A2,2,0,0,1,25.56,26.76Z"/><circle cx="35.92" cy="28.76" r="2"/><path d="M35.92,31.26a2.5,2.5,0,1,1,2.5-2.5A2.5,2.5,0,0,1,35.92,31.26Zm0-4a1.5,1.5,0,1,0,1.5,1.5A1.5,1.5,0,0,0,35.92,27.26Z"/><path d="M35.92,27.26a1.5,1.5,0,1,1-1.5,1.5,1.5,1.5,0,0,1,1.5-1.5m0-1a2.5,2.5,0,1,0,2.5,2.5,2.5,2.5,0,0,0-2.5-2.5Z"/><path d="M35.92,31.76a3,3,0,1,1,3-3A3,3,0,0,1,35.92,31.76Zm0-4a1,1,0,1,0,1,1A1,1,0,0,0,35.92,27.76Zm0-1a2,2,0,0,1,2,2,2,2,0,0,0-4,0A2,2,0,0,1,35.92,26.76Z"/><circle cx="46.24" cy="28.76" r="2"/><path d="M46.24,31.26a2.5,2.5,0,1,1,2.5-2.5A2.5,2.5,0,0,1,46.24,31.26Zm0-4a1.5,1.5,0,1,0,1.5,1.5A1.5,1.5,0,0,0,46.24,27.26Z"/><path d="M46.24,27.26a1.5,1.5,0,1,1-1.5,1.5,1.5,1.5,0,0,1,1.5-1.5m0-1a2.5,2.5,0,1,0,2.5,2.5,2.5,2.5,0,0,0-2.5-2.5Z"/><path d="M46.24,31.76a3,3,0,1,1,3-3A3,3,0,0,1,46.24,31.76Zm0-4a1,1,0,1,0,1,1A1,1,0,0,0,46.24,27.76Zm0-1a2,2,0,0,1,2,2,2,2,0,1,0-4,0A2,2,0,0,1,46.24,26.76Z"/><circle cx="25.56" cy="36.29" r="2"/><path d="M25.56,38.79a2.5,2.5,0,1,1,2.5-2.5A2.51,2.51,0,0,1,25.56,38.79Zm0-4a1.5,1.5,0,1,0,1.5,1.5A1.5,1.5,0,0,0,25.56,34.79Z"/><path d="M25.56,34.79a1.5,1.5,0,1,1-1.5,1.5,1.5,1.5,0,0,1,1.5-1.5m0-1a2.5,2.5,0,1,0,2.5,2.5,2.5,2.5,0,0,0-2.5-2.5Z"/><path d="M25.56,39.29a3,3,0,1,1,3-3A3,3,0,0,1,25.56,39.29Zm0-4a1,1,0,1,0,1,1A1,1,0,0,0,25.56,35.29Zm0-1a2,2,0,0,1,2,2,2,2,0,0,0-4,0A2,2,0,0,1,25.56,34.29Z"/><circle cx="25.56" cy="43.45" r="2"/><path d="M25.56,46a2.5,2.5,0,1,1,2.5-2.5A2.51,2.51,0,0,1,25.56,46Zm0-4a1.5,1.5,0,1,0,1.5,1.5A1.5,1.5,0,0,0,25.56,42Z"/><path d="M25.56,42a1.5,1.5,0,1,1-1.5,1.5,1.5,1.5,0,0,1,1.5-1.5m0-1a2.5,2.5,0,1,0,2.5,2.5,2.5,2.5,0,0,0-2.5-2.5Z"/><path d="M25.56,46.45a3,3,0,1,1,3-3A3,3,0,0,1,25.56,46.45Zm0-4a1,1,0,1,0,1,1A1,1,0,0,0,25.56,42.45Zm0-1a2,2,0,0,1,2,2,2,2,0,0,0-4,0A2,2,0,0,1,25.56,41.45Z"/><circle cx="35.92" cy="43.45" r="2"/><path d="M35.92,46a2.5,2.5,0,1,1,2.5-2.5A2.5,2.5,0,0,1,35.92,46Zm0-4a1.5,1.5,0,1,0,1.5,1.5A1.5,1.5,0,0,0,35.92,42Z"/><path d="M35.92,42a1.5,1.5,0,1,1-1.5,1.5,1.5,1.5,0,0,1,1.5-1.5m0-1a2.5,2.5,0,1,0,2.5,2.5,2.5,2.5,0,0,0-2.5-2.5Z"/><path d="M35.92,46.45a3,3,0,1,1,3-3A3,3,0,0,1,35.92,46.45Zm0-4a1,1,0,1,0,1,1A1,1,0,0,0,35.92,42.45Zm0-1a2,2,0,0,1,2,2,2,2,0,0,0-4,0A2,2,0,0,1,35.92,41.45Z"/><circle cx="25.56" cy="50.87" r="2"/><path d="M25.56,53.37a2.5,2.5,0,1,1,2.5-2.5A2.51,2.51,0,0,1,25.56,53.37Zm0-4a1.5,1.5,0,1,0,1.5,1.5A1.5,1.5,0,0,0,25.56,49.37Z"/><path d="M25.56,49.37a1.5,1.5,0,1,1-1.5,1.5,1.5,1.5,0,0,1,1.5-1.5m0-1a2.5,2.5,0,1,0,2.5,2.5,2.5,2.5,0,0,0-2.5-2.5Z"/><path d="M25.56,53.87a3,3,0,1,1,3-3A3,3,0,0,1,25.56,53.87Zm0-4a1,1,0,1,0,1,1A1,1,0,0,0,25.56,49.87Zm0-1a2,2,0,0,1,2,2,2,2,0,0,0-4,0A2,2,0,0,1,25.56,48.87Z"/><circle cx="35.92" cy="50.87" r="2"/><path d="M35.92,53.37a2.5,2.5,0,1,1,2.5-2.5A2.5,2.5,0,0,1,35.92,53.37Zm0-4a1.5,1.5,0,1,0,1.5,1.5A1.5,1.5,0,0,0,35.92,49.37Z"/><path d="M35.92,49.37a1.5,1.5,0,1,1-1.5,1.5,1.5,1.5,0,0,1,1.5-1.5m0-1a2.5,2.5,0,1,0,2.5,2.5,2.5,2.5,0,0,0-2.5-2.5Z"/><path d="M35.92,53.87a3,3,0,1,1,3-3A3,3,0,0,1,35.92,53.87Zm0-4a1,1,0,1,0,1,1A1,1,0,0,0,35.92,49.87Zm0-1a2,2,0,0,1,2,2,2,2,0,1,0-4,0A2,2,0,0,1,35.92,48.87Z"/><circle cx="35.92" cy="36.11" r="2"/><path d="M35.92,38.6a2.5,2.5,0,1,1,2.5-2.5A2.5,2.5,0,0,1,35.92,38.6Zm0-4a1.5,1.5,0,1,0,1.5,1.5A1.5,1.5,0,0,0,35.92,34.6Z"/><path d="M35.92,34.6a1.5,1.5,0,1,1-1.5,1.5,1.5,1.5,0,0,1,1.5-1.5m0-1a2.5,2.5,0,1,0,2.5,2.5,2.5,2.5,0,0,0-2.5-2.5Z"/><path d="M35.92,39.1a3,3,0,1,1,3-3A3,3,0,0,1,35.92,39.1Zm0-4a1,1,0,1,0,1,1A1,1,0,0,0,35.92,35.1Zm0-1a2,2,0,0,1,2,2,2,2,0,0,0-4,0A2,2,0,0,1,35.92,34.1Z"/></svg>