<svg id="Layer_1" data-name="Layer 1" xmlns="http://www.w3.org/2000/svg" viewBox="0 0 70 70"><title>calculator</title><path d="M46.56,57.56H25.7a6.88,6.88,0,0,1-6.87-6.87V17.37A6.88,6.88,0,0,1,25.7,10.5H46.56a6.88,6.88,0,0,1,6.87,6.87V50.69A6.88,6.88,0,0,1,46.56,57.56ZM25.7,11.5a5.88,5.88,0,0,0-5.87,5.87V50.69a5.88,5.88,0,0,0,5.87,5.87H46.56a5.87,5.87,0,0,0,5.87-5.87V17.37a5.87,5.87,0,0,0-5.87-5.87Z"/><rect x="23.17" y="16.26" width="25.5" height="6.35" rx="1.23"/><path d="M47.44,16.76a.73.73,0,0,1,.73.73v3.89a.73.73,0,0,1-.73.73h-23a.73.73,0,0,1-.73-.73V17.49a.73.73,0,0,1,.73-.73h23m0-1h-23a1.72,1.72,0,0,0-1.73,1.73v3.89a1.72,1.72,0,0,0,1.73,1.73h23a1.72,1.72,0,0,0,1.73-1.73V17.49a1.72,1.72,0,0,0-1.73-1.73Z"/><rect x="43.17" y="34.29" width="6.15" height="18.58" rx="1.13"/><path d="M48.19,34.79a.63.63,0,0,1,.63.63V51.74a.63.63,0,0,1-.63.63H44.3a.63.63,0,0,1-.63-.63V35.42a.63.63,0,0,1,.63-.63h3.89m0-1H44.3a1.63,1.63,0,0,0-1.63,1.63V51.74a1.63,1.63,0,0,0,1.63,1.63h3.89a1.63,1.63,0,0,0,1.63-1.63V35.42a1.63,1.63,0,0,0-1.63-1.63Z"/><circle cx="25.56" cy="28.76" r="2"/><path d="M25.56,27.26a1.5,1.5,0,1,1-1.5,1.5,1.5,1.5,0,0,1,1.5-1.5m0-1a2.5,2.5,0,1,0,2.5,2.5,2.5,2.5,0,0,0-2.5-2.5Z"/><circle cx="35.92" cy="28.76" r="2"/><path d="M35.92,27.26a1.5,1.5,0,1,1-1.5,1.5,1.5,1.5,0,0,1,1.5-1.5m0-1a2.5,2.5,0,1,0,2.5,2.5,2.5,2.5,0,0,0-2.5-2.5Z"/><circle cx="46.24" cy="28.76" r="2"/><path d="M46.24,27.26a1.5,1.5,0,1,1-1.5,1.5,1.5,1.5,0,0,1,1.5-1.5m0-1a2.5,2.5,0,1,0,2.5,2.5,2.5,2.5,0,0,0-2.5-2.5Z"/><circle cx="25.56" cy="36.29" r="2"/><path d="M25.56,34.79a1.5,1.5,0,1,1-1.5,1.5,1.5,1.5,0,0,1,1.5-1.5m0-1a2.5,2.5,0,1,0,2.5,2.5,2.5,2.5,0,0,0-2.5-2.5Z"/><circle cx="35.92" cy="36.29" r="2"/><path d="M35.92,34.79a1.5,1.5,0,1,1-1.5,1.5,1.5,1.5,0,0,1,1.5-1.5m0-1a2.5,2.5,0,1,0,2.5,2.5,2.5,2.5,0,0,0-2.5-2.5Z"/><circle cx="25.56" cy="43.45" r="2"/><path d="M25.56,42a1.5,1.5,0,1,1-1.5,1.5,1.5,1.5,0,0,1,1.5-1.5m0-1a2.5,2.5,0,1,0,2.5,2.5,2.5,2.5,0,0,0-2.5-2.5Z"/><circle cx="35.92" cy="43.45" r="2"/><path d="M35.92,42a1.5,1.5,0,1,1-1.5,1.5,1.5,1.5,0,0,1,1.5-1.5m0-1a2.5,2.5,0,1,0,2.5,2.5,2.5,2.5,0,0,0-2.5-2.5Z"/><circle cx="25.56" cy="50.87" r="2"/><path d="M25.56,49.37a1.5,1.5,0,1,1-1.5,1.5,1.5,1.5,0,0,1,1.5-1.5m0-1a2.5,2.5,0,1,0,2.5,2.5,2.5,2.5,0,0,0-2.5-2.5Z"/><circle cx="35.92" cy="50.87" r="2"/><path d="M35.92,49.37a1.5,1.5,0,1,1-1.5,1.5,1.5,1.5,0,0,1,1.5-1.5m0-1a2.5,2.5,0,1,0,2.5,2.5,2.5,2.5,0,0,0-2.5-2.5Z"/></svg>