<svg id="Layer_1" data-name="Layer 1" xmlns="http://www.w3.org/2000/svg" viewBox="0 0 70 70"><title>calendar</title><path d="M57.89,17a3.44,3.44,0,0,1,3.44,3.43V50.53A3.44,3.44,0,0,1,57.89,54H16.79a3.44,3.44,0,0,1-3.43-3.44V20.4A3.44,3.44,0,0,1,16.79,17h41.1m0-1H16.79a4.43,4.43,0,0,0-4.43,4.43V50.53A4.43,4.43,0,0,0,16.79,55h41.1a4.44,4.44,0,0,0,4.44-4.44V20.4A4.43,4.43,0,0,0,57.89,16Z"/><rect x="27.79" y="11" width="1" height="11.07"/><rect x="45.97" y="11" width="1" height="11.07"/><rect x="20.08" y="26.47" width="33.61" height="1"/><rect x="20.08" y="35.5" width="33.61" height="1"/><rect x="20.08" y="44.53" width="33.61" height="1"/></svg>