<svg id="Layer_1" data-name="Layer 1" xmlns="http://www.w3.org/2000/svg" viewBox="0 0 70 70"><title>calendar</title><path d="M57.89,17a3.44,3.44,0,0,1,3.44,3.43V50.53A3.44,3.44,0,0,1,57.89,54H16.79a3.44,3.44,0,0,1-3.43-3.44V20.4A3.44,3.44,0,0,1,16.79,17h41.1m0-1H16.79a4.43,4.43,0,0,0-4.43,4.43V50.53A4.43,4.43,0,0,0,16.79,55h41.1a4.44,4.44,0,0,0,4.44-4.44V20.4A4.43,4.43,0,0,0,57.89,16Z"/><path d="M57.89,55.47H16.79a4.94,4.94,0,0,1-4.93-4.94V20.4a4.93,4.93,0,0,1,4.93-4.93h41.1a4.94,4.94,0,0,1,4.94,4.93V50.53A5,5,0,0,1,57.89,55.47Zm-41.1-38a2.93,2.93,0,0,0-2.93,2.93V50.53a2.94,2.94,0,0,0,2.93,2.94h41.1a2.94,2.94,0,0,0,2.94-2.94V20.4a2.94,2.94,0,0,0-2.94-2.93Zm0-1a3.93,3.93,0,0,0-3.93,3.93v0a3.93,3.93,0,0,1,3.93-3.93h41.1a3.94,3.94,0,0,1,3.94,3.93,3.94,3.94,0,0,0-3.94-3.93Z"/><rect x="27.79" y="11" width="1" height="11.07"/><rect x="27.29" y="10.5" width="2" height="12.07"/><rect x="45.97" y="11" width="1" height="11.07"/><rect x="45.47" y="10.5" width="2" height="12.07"/><rect x="20.08" y="26.47" width="33.61" height="1"/><path d="M54.2,28H19.58V26H54.2ZM20.58,27h0Z"/><rect x="20.08" y="35.5" width="33.61" height="1"/><path d="M54.2,37H19.58V35H54.2ZM20.58,36h0Z"/><rect x="20.08" y="44.53" width="33.61" height="1"/><path d="M54.2,46H19.58V44H54.2ZM20.58,45h0Z"/></svg>