<svg id="Layer_1" data-name="Layer 1" xmlns="http://www.w3.org/2000/svg" viewBox="0 0 70 70"><title>calendar-alt</title><path d="M56.19,16a3.44,3.44,0,0,1,3.43,3.43V49.55A3.44,3.44,0,0,1,56.19,53H15.09a3.44,3.44,0,0,1-3.43-3.44V19.42A3.44,3.44,0,0,1,15.09,16h41.1m0-1H15.09a4.43,4.43,0,0,0-4.43,4.43V49.55A4.43,4.43,0,0,0,15.09,54h41.1a4.43,4.43,0,0,0,4.43-4.44V19.42A4.43,4.43,0,0,0,56.19,15Z"/><rect x="26.09" y="10.01" width="1" height="11.07"/><rect x="44.27" y="10.01" width="1" height="11.07"/><rect x="18.38" y="25.49" width="33.61" height="1"/><rect x="18.38" y="34.52" width="33.61" height="1"/><rect x="18.38" y="43.55" width="33.61" height="1"/><circle cx="47.01" cy="35" r="2.24"/><path d="M47,37.74A2.74,2.74,0,1,1,49.76,35,2.74,2.74,0,0,1,47,37.74Zm0-4.48A1.74,1.74,0,1,0,48.76,35,1.74,1.74,0,0,0,47,33.26Z"/><circle cx="39.11" cy="25.99" r="2.24"/><path d="M39.11,28.73A2.75,2.75,0,1,1,41.85,26,2.74,2.74,0,0,1,39.11,28.73Zm0-4.49A1.75,1.75,0,1,0,40.85,26,1.74,1.74,0,0,0,39.11,24.24Z"/><circle cx="35.19" cy="44.05" r="2.24"/><path d="M35.19,46.79a2.74,2.74,0,1,1,2.74-2.74A2.74,2.74,0,0,1,35.19,46.79Zm0-4.48a1.74,1.74,0,1,0,1.74,1.74A1.74,1.74,0,0,0,35.19,42.31Z"/><circle cx="22.79" cy="35" r="2.24"/><path d="M22.79,37.74A2.74,2.74,0,1,1,25.53,35,2.74,2.74,0,0,1,22.79,37.74Zm0-4.48A1.74,1.74,0,1,0,24.53,35,1.74,1.74,0,0,0,22.79,33.26Z"/></svg>