<svg id="Layer_1" data-name="Layer 1" xmlns="http://www.w3.org/2000/svg" viewBox="0 0 70 70"><title>calendar-alt</title><path d="M56.19,16a3.44,3.44,0,0,1,3.43,3.43V49.55A3.44,3.44,0,0,1,56.19,53H15.09a3.44,3.44,0,0,1-3.43-3.44V19.42A3.44,3.44,0,0,1,15.09,16h41.1m0-1H15.09a4.43,4.43,0,0,0-4.43,4.43V49.55A4.43,4.43,0,0,0,15.09,54h41.1a4.43,4.43,0,0,0,4.43-4.44V19.42A4.43,4.43,0,0,0,56.19,15Z"/><path d="M56.19,54.49H15.09a4.94,4.94,0,0,1-4.93-4.94V19.42a4.93,4.93,0,0,1,4.93-4.93h41.1a4.94,4.94,0,0,1,4.94,4.93V49.55A5,5,0,0,1,56.19,54.49Zm-41.1-38a2.93,2.93,0,0,0-2.93,2.93V49.55a2.94,2.94,0,0,0,2.93,2.94h41.1a2.94,2.94,0,0,0,2.94-2.94V19.42a2.94,2.94,0,0,0-2.94-2.93Zm0-1a3.93,3.93,0,0,0-3.93,3.93v0a3.93,3.93,0,0,1,3.93-3.93h41.1a3.94,3.94,0,0,1,3.94,3.93,3.94,3.94,0,0,0-3.94-3.93Z"/><rect x="26.09" y="10.01" width="1" height="11.07"/><rect x="25.59" y="9.51" width="2" height="12.07"/><rect x="44.27" y="10.01" width="1" height="11.07"/><rect x="43.77" y="9.51" width="2" height="12.07"/><rect x="18.38" y="25.49" width="33.61" height="1"/><path d="M52.5,27H17.88V25H52.5ZM18.88,26h0Z"/><rect x="18.38" y="34.52" width="33.61" height="1"/><path d="M52.5,36H17.88V34H52.5ZM18.88,35h0Z"/><rect x="18.38" y="43.55" width="33.61" height="1"/><path d="M52.5,45.05H17.88v-2H52.5Zm-33.62-1h0Z"/><circle cx="47.01" cy="35" r="2.24"/><path d="M47,37.74A2.74,2.74,0,1,1,49.76,35,2.74,2.74,0,0,1,47,37.74Zm0-4.48A1.74,1.74,0,1,0,48.76,35,1.74,1.74,0,0,0,47,33.26Z"/><path d="M47,37.74A2.74,2.74,0,1,1,49.76,35,2.74,2.74,0,0,1,47,37.74Zm0-4.48A1.74,1.74,0,1,0,48.76,35,1.74,1.74,0,0,0,47,33.26Z"/><path d="M47,38.24A3.24,3.24,0,1,1,50.26,35,3.25,3.25,0,0,1,47,38.24ZM44.77,35a2.25,2.25,0,0,0,4.49,0,2.25,2.25,0,0,1-4.49,0ZM47,33.76A1.24,1.24,0,1,0,48.26,35,1.24,1.24,0,0,0,47,33.76Z"/><circle cx="39.11" cy="25.99" r="2.24"/><path d="M39.11,28.73A2.75,2.75,0,1,1,41.85,26,2.74,2.74,0,0,1,39.11,28.73Zm0-4.49A1.75,1.75,0,1,0,40.85,26,1.74,1.74,0,0,0,39.11,24.24Z"/><path d="M39.11,28.73A2.75,2.75,0,1,1,41.85,26,2.74,2.74,0,0,1,39.11,28.73Zm0-4.49A1.75,1.75,0,1,0,40.85,26,1.74,1.74,0,0,0,39.11,24.24Z"/><path d="M39.11,29.23A3.25,3.25,0,1,1,42.35,26,3.25,3.25,0,0,1,39.11,29.23ZM36.87,26a2.24,2.24,0,0,0,4.48,0,2.24,2.24,0,0,1-4.48,0Zm2.24-1.25A1.25,1.25,0,1,0,40.35,26,1.25,1.25,0,0,0,39.11,24.74Z"/><circle cx="35.19" cy="44.05" r="2.24"/><path d="M35.19,46.79a2.74,2.74,0,1,1,2.74-2.74A2.74,2.74,0,0,1,35.19,46.79Zm0-4.48a1.74,1.74,0,1,0,1.74,1.74A1.74,1.74,0,0,0,35.19,42.31Z"/><path d="M35.19,46.79a2.74,2.74,0,1,1,2.74-2.74A2.74,2.74,0,0,1,35.19,46.79Zm0-4.48a1.74,1.74,0,1,0,1.74,1.74A1.74,1.74,0,0,0,35.19,42.31Z"/><path d="M35.19,47.29a3.24,3.24,0,1,1,3.24-3.24A3.24,3.24,0,0,1,35.19,47.29ZM33,44.05a2.24,2.24,0,0,0,4.48,0,2.24,2.24,0,0,1-4.48,0Zm2.24-1.24a1.24,1.24,0,1,0,1.24,1.24A1.24,1.24,0,0,0,35.19,42.81Z"/><circle cx="22.79" cy="35" r="2.24"/><path d="M22.79,37.74A2.74,2.74,0,1,1,25.53,35,2.74,2.74,0,0,1,22.79,37.74Zm0-4.48A1.74,1.74,0,1,0,24.53,35,1.74,1.74,0,0,0,22.79,33.26Z"/><path d="M22.79,37.74A2.74,2.74,0,1,1,25.53,35,2.74,2.74,0,0,1,22.79,37.74Zm0-4.48A1.74,1.74,0,1,0,24.53,35,1.74,1.74,0,0,0,22.79,33.26Z"/><path d="M22.79,38.24A3.24,3.24,0,1,1,26,35,3.24,3.24,0,0,1,22.79,38.24ZM20.55,35A2.24,2.24,0,0,0,25,35a2.24,2.24,0,0,1-4.48,0Zm2.24-1.24A1.24,1.24,0,1,0,24,35,1.23,1.23,0,0,0,22.79,33.76Z"/></svg>