<svg id="Layer_1" data-name="Layer 1" xmlns="http://www.w3.org/2000/svg" viewBox="0 0 70 70"><title>camera</title><path d="M57.32,52.31H13.58a5,5,0,0,1-4.95-5V22.77a5,5,0,0,1,4.95-4.95H57.32a5,5,0,0,1,5,4.95V47.35A5,5,0,0,1,57.32,52.31ZM13.58,18.82a4,4,0,0,0-3.95,3.95V47.35a4,4,0,0,0,3.95,4H57.32a4,4,0,0,0,4-4V22.77a4,4,0,0,0-4-3.95Z"/><path d="M36.13,42.19a7.13,7.13,0,1,1,7.13-7.13A7.13,7.13,0,0,1,36.13,42.19Zm0-13.25a6.13,6.13,0,1,0,6.13,6.12A6.13,6.13,0,0,0,36.13,28.94Z"/><path d="M42.85,18.82H29.4a2.58,2.58,0,0,1-2.58-2.58v-2a2.59,2.59,0,0,1,2.58-2.58H42.85a2.59,2.59,0,0,1,2.59,2.58v2A2.58,2.58,0,0,1,42.85,18.82ZM29.4,12.63a1.58,1.58,0,0,0-1.58,1.58v2a1.58,1.58,0,0,0,1.58,1.58H42.85a1.59,1.59,0,0,0,1.59-1.58v-2a1.59,1.59,0,0,0-1.59-1.58Z"/><path d="M55.55,18.82H53.16a1.2,1.2,0,0,1-1.2-1.2V16.7a1.2,1.2,0,0,1,1.2-1.2h2.39a1.2,1.2,0,0,1,1.2,1.2v.92A1.2,1.2,0,0,1,55.55,18.82ZM53.16,16.5a.2.2,0,0,0-.2.2v.92a.2.2,0,0,0,.2.2h2.39a.2.2,0,0,0,.2-.2V16.7a.2.2,0,0,0-.2-.2Z"/></svg>