<svg id="Layer_1" data-name="Layer 1" xmlns="http://www.w3.org/2000/svg" viewBox="0 0 70 70"><title>camera-alt</title><path d="M57,53.4H13.28a5,5,0,0,1-4.95-4.95V23.87a5,5,0,0,1,4.95-4.95H57A5,5,0,0,1,62,23.87V48.45A5,5,0,0,1,57,53.4ZM13.28,19.92a4,4,0,0,0-3.95,3.95V48.45a4,4,0,0,0,3.95,3.95H57A4,4,0,0,0,61,48.45V23.87A4,4,0,0,0,57,19.92Z"/><path d="M35.83,43.84A7.13,7.13,0,1,1,43,36.71,7.14,7.14,0,0,1,35.83,43.84Zm0-13.26A6.13,6.13,0,1,0,42,36.71,6.14,6.14,0,0,0,35.83,30.58Z"/><path d="M27.12,29.24H13.67a2.59,2.59,0,0,1-2.59-2.58v-2a2.59,2.59,0,0,1,2.59-2.58H27.12a2.59,2.59,0,0,1,2.58,2.58v2A2.59,2.59,0,0,1,27.12,29.24ZM13.67,23.05a1.59,1.59,0,0,0-1.59,1.58v2a1.59,1.59,0,0,0,1.59,1.58H27.12a1.58,1.58,0,0,0,1.58-1.58v-2a1.58,1.58,0,0,0-1.58-1.58Z"/><path d="M55.25,19.92H52.86a1.2,1.2,0,0,1-1.2-1.2V17.8a1.2,1.2,0,0,1,1.2-1.2h2.39a1.2,1.2,0,0,1,1.2,1.2v.92A1.2,1.2,0,0,1,55.25,19.92ZM52.86,17.6a.2.2,0,0,0-.2.2v.92a.2.2,0,0,0,.2.2h2.39a.2.2,0,0,0,.2-.2V17.8a.2.2,0,0,0-.2-.2Z"/></svg>