<svg id="Layer_1" data-name="Layer 1" xmlns="http://www.w3.org/2000/svg" viewBox="0 0 70 70"><title>camera</title><path d="M57.32,52.31H13.58a5,5,0,0,1-4.95-5V22.77a5,5,0,0,1,4.95-4.95H57.32a5,5,0,0,1,5,4.95V47.35A5,5,0,0,1,57.32,52.31ZM13.58,18.82a4,4,0,0,0-3.95,3.95V47.35a4,4,0,0,0,3.95,4H57.32a4,4,0,0,0,4-4V22.77a4,4,0,0,0-4-3.95Z"/><path d="M57.32,52.81H13.58a5.46,5.46,0,0,1-5.45-5.46V22.77a5.46,5.46,0,0,1,5.45-5.45H57.32a5.46,5.46,0,0,1,5.45,5.45V47.35A5.46,5.46,0,0,1,57.32,52.81ZM9.13,47.35a4.46,4.46,0,0,0,4.45,4.46H57.32a4.46,4.46,0,0,0,4.45-4.46v0a4.46,4.46,0,0,1-4.45,4.46H13.58A4.46,4.46,0,0,1,9.13,47.35Zm4.45-28a3.46,3.46,0,0,0-3.45,3.45V47.35a3.46,3.46,0,0,0,3.45,3.46H57.32a3.45,3.45,0,0,0,3.45-3.46V22.77a3.45,3.45,0,0,0-3.45-3.45Z"/><path d="M36.13,42.19a7.13,7.13,0,1,1,7.13-7.13A7.13,7.13,0,0,1,36.13,42.19Zm0-13.25a6.13,6.13,0,1,0,6.13,6.12A6.13,6.13,0,0,0,36.13,28.94Z"/><path d="M36.13,42.69a7.63,7.63,0,1,1,7.63-7.63A7.64,7.64,0,0,1,36.13,42.69ZM29.5,35.06a6.63,6.63,0,1,0,13.26,0,6.63,6.63,0,1,1-13.26,0Zm6.63-5.62a5.63,5.63,0,1,0,5.63,5.62A5.63,5.63,0,0,0,36.13,29.44Z"/><path d="M42.85,18.82H29.4a2.58,2.58,0,0,1-2.58-2.58v-2a2.59,2.59,0,0,1,2.58-2.58H42.85a2.59,2.59,0,0,1,2.59,2.58v2A2.58,2.58,0,0,1,42.85,18.82ZM29.4,12.63a1.58,1.58,0,0,0-1.58,1.58v2a1.58,1.58,0,0,0,1.58,1.58H42.85a1.59,1.59,0,0,0,1.59-1.58v-2a1.59,1.59,0,0,0-1.59-1.58Z"/><path d="M42.85,19.32H29.4a3.08,3.08,0,0,1-3.08-3.08v-2a3.08,3.08,0,0,1,3.08-3.08H42.85a3.09,3.09,0,0,1,3.09,3.08v2A3.09,3.09,0,0,1,42.85,19.32ZM27.32,16.24a2.08,2.08,0,0,0,2.08,2.08H42.85a2.09,2.09,0,0,0,2.09-2.08v0a2.09,2.09,0,0,1-2.09,2.08H29.4A2.08,2.08,0,0,1,27.32,16.24Zm2.08-3.11a1.08,1.08,0,0,0-1.08,1.08v2a1.08,1.08,0,0,0,1.08,1.08H42.85a1.08,1.08,0,0,0,1.09-1.08v-2a1.08,1.08,0,0,0-1.09-1.08Z"/><path d="M55.55,18.82H53.16a1.2,1.2,0,0,1-1.2-1.2V16.7a1.2,1.2,0,0,1,1.2-1.2h2.39a1.2,1.2,0,0,1,1.2,1.2v.92A1.2,1.2,0,0,1,55.55,18.82ZM53.16,16.5a.2.2,0,0,0-.2.2v.92a.2.2,0,0,0,.2.2h2.39a.2.2,0,0,0,.2-.2V16.7a.2.2,0,0,0-.2-.2Z"/><path d="M55.55,19.32H53.16a1.7,1.7,0,0,1-1.7-1.7V16.7a1.7,1.7,0,0,1,1.7-1.7h2.39a1.7,1.7,0,0,1,1.7,1.7v.92A1.7,1.7,0,0,1,55.55,19.32Zm-3.09-1.7a.7.7,0,0,0,.7.7h2.39a.7.7,0,0,0,.7-.7v0a.7.7,0,0,1-.7.7H53.16A.7.7,0,0,1,52.46,17.62Zm1-.3h1.79V17H53.46Z"/></svg>