<svg id="Layer_1" data-name="Layer 1" xmlns="http://www.w3.org/2000/svg" viewBox="0 0 70 70"><title>camera-alt</title><path d="M57,53.4H13.28a5,5,0,0,1-4.95-4.95V23.87a5,5,0,0,1,4.95-4.95H57A5,5,0,0,1,62,23.87V48.45A5,5,0,0,1,57,53.4ZM13.28,19.92a4,4,0,0,0-3.95,3.95V48.45a4,4,0,0,0,3.95,3.95H57A4,4,0,0,0,61,48.45V23.87A4,4,0,0,0,57,19.92Z"/><path d="M57,53.9H13.28a5.45,5.45,0,0,1-5.45-5.45V23.87a5.46,5.46,0,0,1,5.45-5.45H57a5.46,5.46,0,0,1,5.45,5.45V48.45A5.45,5.45,0,0,1,57,53.9ZM8.83,48.45a4.45,4.45,0,0,0,4.45,4.45H57a4.45,4.45,0,0,0,4.45-4.45v0A4.45,4.45,0,0,1,57,52.9H13.28A4.45,4.45,0,0,1,8.83,48.45Zm4.45-28a3.46,3.46,0,0,0-3.45,3.45V48.45a3.46,3.46,0,0,0,3.45,3.45H57a3.46,3.46,0,0,0,3.45-3.45V23.87A3.46,3.46,0,0,0,57,20.42Z"/><path d="M35.83,45.31A7.13,7.13,0,1,1,43,38.19,7.13,7.13,0,0,1,35.83,45.31Zm0-13.25A6.13,6.13,0,1,0,42,38.19,6.14,6.14,0,0,0,35.83,32.06Z"/><path d="M35.83,45.81a7.63,7.63,0,1,1,7.63-7.62A7.63,7.63,0,0,1,35.83,45.81ZM29.2,38.19a6.63,6.63,0,0,0,13.26,0,6.63,6.63,0,0,1-13.26,0Zm6.63-5.63a5.63,5.63,0,1,0,5.63,5.63A5.63,5.63,0,0,0,35.83,32.56Z"/><path d="M28.79,29.83H15.34a2.59,2.59,0,0,1-2.58-2.58v-2a2.59,2.59,0,0,1,2.58-2.58H28.79a2.58,2.58,0,0,1,2.58,2.58v2A2.58,2.58,0,0,1,28.79,29.83Zm-13.45-6.2a1.58,1.58,0,0,0-1.58,1.58v2a1.58,1.58,0,0,0,1.58,1.58H28.79a1.58,1.58,0,0,0,1.58-1.58v-2a1.58,1.58,0,0,0-1.58-1.58Z"/><path d="M28.79,30.33H15.34a3.09,3.09,0,0,1-3.08-3.08v-2a3.08,3.08,0,0,1,3.08-3.08H28.79a3.09,3.09,0,0,1,3.09,3.08v2A3.1,3.1,0,0,1,28.79,30.33ZM13.26,27.25a2.09,2.09,0,0,0,2.08,2.08H28.79a2.09,2.09,0,0,0,2.09-2.08v0a2.09,2.09,0,0,1-2.09,2.08H15.34A2.09,2.09,0,0,1,13.26,27.25Zm2.08-3.12a1.09,1.09,0,0,0-1.08,1.08v2a1.09,1.09,0,0,0,1.08,1.08H28.79a1.09,1.09,0,0,0,1.09-1.08v-2a1.09,1.09,0,0,0-1.09-1.08Z"/><path d="M55.25,19.92H52.86a1.2,1.2,0,0,1-1.2-1.2V17.8a1.2,1.2,0,0,1,1.2-1.2h2.39a1.2,1.2,0,0,1,1.2,1.2v.92A1.2,1.2,0,0,1,55.25,19.92ZM52.86,17.6a.2.2,0,0,0-.2.2v.92a.2.2,0,0,0,.2.2h2.39a.2.2,0,0,0,.2-.2V17.8a.2.2,0,0,0-.2-.2Z"/><path d="M55.25,20.42H52.86a1.7,1.7,0,0,1-1.7-1.7V17.8a1.7,1.7,0,0,1,1.7-1.7h2.39A1.7,1.7,0,0,1,57,17.8v.92A1.7,1.7,0,0,1,55.25,20.42Zm-3.09-1.7a.7.7,0,0,0,.7.7h2.39a.71.71,0,0,0,.7-.7v0a.71.71,0,0,1-.7.7H52.86A.7.7,0,0,1,52.16,18.72Zm1-.3H55V18.1H53.16Z"/></svg>