<svg id="Layer_1" data-name="Layer 1" xmlns="http://www.w3.org/2000/svg" viewBox="0 0 70 70"><title>card</title><path d="M56.56,51.79H17.33a3.56,3.56,0,0,1-3.56-3.56v-23a3.56,3.56,0,0,1,3.56-3.56H56.56a3.57,3.57,0,0,1,3.56,3.56v23A3.56,3.56,0,0,1,56.56,51.79ZM17.33,22.63a2.56,2.56,0,0,0-2.56,2.56v23a2.56,2.56,0,0,0,2.56,2.56H56.56a2.56,2.56,0,0,0,2.56-2.56v-23a2.56,2.56,0,0,0-2.56-2.56Z"/><path d="M56.56,52.29H17.33a4.06,4.06,0,0,1-4.06-4.06v-23a4.06,4.06,0,0,1,4.06-4.06H56.56a4.07,4.07,0,0,1,4.06,4.06v23A4.07,4.07,0,0,1,56.56,52.29ZM14.27,48.23a3.06,3.06,0,0,0,3.06,3.06H56.56a3.07,3.07,0,0,0,3.06-3.06v0a3.07,3.07,0,0,1-3.06,3.06H17.33A3.06,3.06,0,0,1,14.27,48.23Zm3.06-25.1a2.06,2.06,0,0,0-2.06,2.06v23a2.06,2.06,0,0,0,2.06,2.06H56.56a2.06,2.06,0,0,0,2.06-2.06v-23a2.07,2.07,0,0,0-2.06-2.06Z"/><rect x="14.3" y="29.42" width="44.98" height="3.61"/><rect x="17.79" y="45.9" width="10.37" height="1.97" rx="0.86"/><rect x="29.79" y="45.9" width="10.37" height="1.97" rx="0.78"/></svg>