<svg id="Layer_1" data-name="Layer 1" xmlns="http://www.w3.org/2000/svg" viewBox="0 0 70 70"><title>card</title><path d="M56.56,51.79H17.33a3.56,3.56,0,0,1-3.56-3.56v-23a3.56,3.56,0,0,1,3.56-3.56H56.56a3.57,3.57,0,0,1,3.56,3.56v23A3.56,3.56,0,0,1,56.56,51.79ZM17.33,22.63a2.56,2.56,0,0,0-2.56,2.56v23a2.56,2.56,0,0,0,2.56,2.56H56.56a2.56,2.56,0,0,0,2.56-2.56v-23a2.56,2.56,0,0,0-2.56-2.56Z"/><rect x="14.3" y="29.42" width="44.98" height="3.61"/><rect x="17.79" y="45.9" width="10.37" height="1.97" rx="0.86"/><rect x="29.79" y="45.9" width="10.37" height="1.97" rx="0.78"/></svg>