<svg id="Layer_1" data-name="Layer 1" xmlns="http://www.w3.org/2000/svg" viewBox="0 0 70 70"><title>case</title><path d="M56.87,57.15H13.13a5.83,5.83,0,0,1-5.82-5.83V24.81A5.83,5.83,0,0,1,13.13,19H56.87a5.83,5.83,0,0,1,5.82,5.83V51.32A5.83,5.83,0,0,1,56.87,57.15ZM13.13,20a4.83,4.83,0,0,0-4.82,4.83V51.32a4.83,4.83,0,0,0,4.82,4.83H56.87a4.83,4.83,0,0,0,4.82-4.83V24.81A4.83,4.83,0,0,0,56.87,20Z"/><path d="M56.87,57.65H13.13a6.33,6.33,0,0,1-6.32-6.33V24.81a6.33,6.33,0,0,1,6.32-6.33H56.87a6.33,6.33,0,0,1,6.32,6.33V51.32A6.33,6.33,0,0,1,56.87,57.65ZM7.81,51.32a5.33,5.33,0,0,0,5.32,5.33H56.87a5.33,5.33,0,0,0,5.32-5.33v0a5.33,5.33,0,0,1-5.32,5.33H13.13A5.33,5.33,0,0,1,7.81,51.32Zm5.32-30.84a4.33,4.33,0,0,0-4.32,4.33V51.32a4.33,4.33,0,0,0,4.32,4.33H56.87a4.33,4.33,0,0,0,4.32-4.33V24.81a4.33,4.33,0,0,0-4.32-4.33Z"/><path d="M38.23,34.49a105.46,105.46,0,0,1-30.59-5L8,28.57c.32.11,32.1,11,54,0l.45.89C54.94,33.24,46.35,34.49,38.23,34.49Z"/><path d="M38.23,35A104.79,104.79,0,0,1,7.48,30L7,29.82l.67-1.89.47.17c.31.11,31.84,11,53.61,0l.44-.22.9,1.78-.45.23C56,33.29,47.74,35,38.23,35ZM8.28,29.2a96.73,96.73,0,0,0,9.62,2.53A98.4,98.4,0,0,1,8.28,29.2Z"/><path d="M40.38,20H29.62a2,2,0,0,1-2-2V16a2,2,0,0,1,2-2H40.38a2,2,0,0,1,2,2v2A2,2,0,0,1,40.38,20ZM29.62,15a1,1,0,0,0-1,1v2a1,1,0,0,0,1,1H40.38a1,1,0,0,0,1-1V16a1,1,0,0,0-1-1Z"/><path d="M40.38,20.48H29.62A2.5,2.5,0,0,1,27.11,18V16a2.51,2.51,0,0,1,2.51-2.51H40.38A2.51,2.51,0,0,1,42.89,16v2A2.5,2.5,0,0,1,40.38,20.48ZM28.11,18a1.51,1.51,0,0,0,1.51,1.5H40.38A1.51,1.51,0,0,0,41.89,18v0a1.51,1.51,0,0,1-1.51,1.5H29.62A1.51,1.51,0,0,1,28.11,18Zm1.51-2.53a.51.51,0,0,0-.51.51v2a.5.5,0,0,0,.51.5H40.38a.5.5,0,0,0,.51-.5V16a.51.51,0,0,0-.51-.51Z"/><rect x="31.17" y="29.37" width="8.32" height="1"/><path d="M40,30.87H30.67v-2H40Zm-8.32-1h0Z"/></svg>