<svg id="Layer_1" data-name="Layer 1" xmlns="http://www.w3.org/2000/svg" viewBox="0 0 70 70"><title>case</title><path d="M56.87,57.15H13.13a5.83,5.83,0,0,1-5.82-5.83V24.81A5.83,5.83,0,0,1,13.13,19H56.87a5.83,5.83,0,0,1,5.82,5.83V51.32A5.83,5.83,0,0,1,56.87,57.15ZM13.13,20a4.83,4.83,0,0,0-4.82,4.83V51.32a4.83,4.83,0,0,0,4.82,4.83H56.87a4.83,4.83,0,0,0,4.82-4.83V24.81A4.83,4.83,0,0,0,56.87,20Z"/><path d="M38.23,34.49a105.46,105.46,0,0,1-30.59-5L8,28.57c.32.11,32.1,11,54,0l.45.89C54.94,33.24,46.35,34.49,38.23,34.49Z"/><path d="M40.38,20H29.62a2,2,0,0,1-2-2V16a2,2,0,0,1,2-2H40.38a2,2,0,0,1,2,2v2A2,2,0,0,1,40.38,20ZM29.62,15a1,1,0,0,0-1,1v2a1,1,0,0,0,1,1H40.38a1,1,0,0,0,1-1V16a1,1,0,0,0-1-1Z"/><rect x="31.17" y="29.37" width="8.32" height="1"/></svg>