<svg id="Layer_1" data-name="Layer 1" xmlns="http://www.w3.org/2000/svg" viewBox="0 0 70 70"><title>check</title><path d="M35,60.64a25.5,25.5,0,1,1,25.5-25.5A25.53,25.53,0,0,1,35,60.64Zm0-50a24.5,24.5,0,1,0,24.5,24.5A24.53,24.53,0,0,0,35,10.64Z"/><path d="M35,61.14a26,26,0,1,1,26-26A26,26,0,0,1,35,61.14Zm-25-26a25,25,0,0,0,50,0,25,25,0,0,1-50,0Zm25-24a24,24,0,1,0,24,24A24,24,0,0,0,35,11.14Z"/><polygon points="30.3 45.86 18.32 35.74 18.97 34.98 30.22 44.48 50.28 23.28 51.01 23.96 30.3 45.86"/><path d="M30.33,46.54,17.62,35.8l1.29-1.52L30.18,43.8,50.26,22.57,51.71,24Zm-1-2.12.9.75L50.3,24l-20,21.19Z"/></svg>