<svg id="Layer_1" data-name="Layer 1" xmlns="http://www.w3.org/2000/svg" viewBox="0 0 70 70"><title>copy</title><path d="M53.18,56.05H26a5.35,5.35,0,0,1-5.34-5.34V23.48A5.35,5.35,0,0,1,26,18.14H53.18a5.34,5.34,0,0,1,5.34,5.34V50.71A5.34,5.34,0,0,1,53.18,56.05ZM26,19.14a4.35,4.35,0,0,0-4.34,4.34V50.71A4.35,4.35,0,0,0,26,55.05H53.18a4.34,4.34,0,0,0,4.34-4.34V23.48a4.34,4.34,0,0,0-4.34-4.34Z"/><path d="M53.18,56.55H26a5.85,5.85,0,0,1-5.84-5.84V23.48A5.85,5.85,0,0,1,26,17.64H53.18A5.85,5.85,0,0,1,59,23.48V50.71A5.85,5.85,0,0,1,53.18,56.55ZM21.11,50.71A4.84,4.84,0,0,0,26,55.55H53.18A4.84,4.84,0,0,0,58,50.71v0a4.84,4.84,0,0,1-4.84,4.84H26A4.84,4.84,0,0,1,21.11,50.71ZM26,19.64a3.84,3.84,0,0,0-3.84,3.84V50.71A3.84,3.84,0,0,0,26,54.55H53.18A3.84,3.84,0,0,0,57,50.71V23.48a3.84,3.84,0,0,0-3.84-3.84Z"/><path d="M46.64,50.12H19.41a5.35,5.35,0,0,1-5.34-5.34V17.55a5.34,5.34,0,0,1,5.34-5.34H46.64A5.35,5.35,0,0,1,52,17.55V44.78A5.35,5.35,0,0,1,46.64,50.12ZM19.41,13.21a4.34,4.34,0,0,0-4.34,4.34V44.78a4.34,4.34,0,0,0,4.34,4.34H46.64A4.35,4.35,0,0,0,51,44.78V17.55a4.34,4.34,0,0,0-4.34-4.34Z"/><path d="M46.64,50.62H19.41a5.85,5.85,0,0,1-5.84-5.84V17.55a5.85,5.85,0,0,1,5.84-5.84H46.64a5.85,5.85,0,0,1,5.84,5.84V44.78A5.85,5.85,0,0,1,46.64,50.62ZM14.57,44.78a4.84,4.84,0,0,0,4.84,4.84H46.64a4.84,4.84,0,0,0,4.84-4.84v0a4.84,4.84,0,0,1-4.84,4.84H19.41A4.84,4.84,0,0,1,14.57,44.78Zm4.84-31.07a3.84,3.84,0,0,0-3.84,3.84V44.78a3.84,3.84,0,0,0,3.84,3.84H46.64a3.84,3.84,0,0,0,3.84-3.84V17.55a3.84,3.84,0,0,0-3.84-3.84Z"/></svg>