<svg id="Layer_1" data-name="Layer 1" xmlns="http://www.w3.org/2000/svg" viewBox="0 0 70 70"><title>database</title><path d="M50,56.69H20a3.24,3.24,0,0,1-3.24-3.23V18A3.24,3.24,0,0,1,20,14.79H50A3.24,3.24,0,0,1,53.26,18V53.46A3.24,3.24,0,0,1,50,56.69ZM20,15.79A2.23,2.23,0,0,0,17.74,18V53.46A2.23,2.23,0,0,0,20,55.69H50a2.23,2.23,0,0,0,2.24-2.23V18A2.23,2.23,0,0,0,50,15.79Z"/><rect x="17.44" y="24.47" width="34.79" height="1"/><rect x="17.44" y="35.05" width="34.79" height="1"/><rect x="17.24" y="46.15" width="35.19" height="1"/></svg>