<svg id="Layer_1" data-name="Layer 1" xmlns="http://www.w3.org/2000/svg" viewBox="0 0 70 70"><title>database</title><path d="M50,56.69H20a3.24,3.24,0,0,1-3.24-3.23V18A3.24,3.24,0,0,1,20,14.79H50A3.24,3.24,0,0,1,53.26,18V53.46A3.24,3.24,0,0,1,50,56.69ZM20,15.79A2.23,2.23,0,0,0,17.74,18V53.46A2.23,2.23,0,0,0,20,55.69H50a2.23,2.23,0,0,0,2.24-2.23V18A2.23,2.23,0,0,0,50,15.79Z"/><path d="M50,57.19H20a3.74,3.74,0,0,1-3.74-3.73V18A3.75,3.75,0,0,1,20,14.29H50A3.75,3.75,0,0,1,53.76,18V53.46A3.74,3.74,0,0,1,50,57.19ZM17.24,53.46A2.74,2.74,0,0,0,20,56.19H50a2.74,2.74,0,0,0,2.74-2.73v0A2.74,2.74,0,0,1,50,56.19H20A2.74,2.74,0,0,1,17.24,53.46ZM20,16.29A1.74,1.74,0,0,0,18.24,18V53.46A1.73,1.73,0,0,0,20,55.19H50a1.73,1.73,0,0,0,1.74-1.73V18A1.74,1.74,0,0,0,50,16.29Z"/><rect x="17.44" y="24.47" width="34.79" height="1"/><path d="M52.73,26H16.94V24H52.73ZM17.94,25h0Z"/><rect x="17.44" y="35.05" width="34.79" height="1"/><path d="M52.73,36.55H16.94v-2H52.73Zm-34.79-1h0Z"/><rect x="17.24" y="46.15" width="35.19" height="1"/><path d="M52.94,47.65H16.74v-2h36.2Zm-35.2-1h0Z"/></svg>