<svg id="Layer_1" data-name="Layer 1" xmlns="http://www.w3.org/2000/svg" viewBox="0 0 70 70"><title>decrease</title><path d="M35,62a25.5,25.5,0,1,1,25.5-25.5A25.53,25.53,0,0,1,35,62Zm0-50a24.5,24.5,0,1,0,24.5,24.5A24.53,24.53,0,0,0,35,12Z"/><rect x="29.62" y="21.94" width="1" height="9.69"/><rect x="21.59" y="30.69" width="9.05" height="1"/><rect x="39.04" y="21.94" width="1" height="9.69"/><rect x="39.02" y="30.69" width="9.05" height="1"/><rect x="21.44" y="41.97" width="9.69" height="1"/><rect x="30.19" y="41.94" width="1" height="9.05"/><rect x="38.87" y="41.97" width="9.69" height="1"/><rect x="38.81" y="41.94" width="1" height="9.05"/></svg>