<svg id="Layer_1" data-name="Layer 1" xmlns="http://www.w3.org/2000/svg" viewBox="0 0 70 70"><title>decrease</title><path d="M35,62a25.5,25.5,0,1,1,25.5-25.5A25.53,25.53,0,0,1,35,62Zm0-50a24.5,24.5,0,1,0,24.5,24.5A24.53,24.53,0,0,0,35,12Z"/><path d="M35,62.47a26,26,0,1,1,26-26A26,26,0,0,1,35,62.47Zm-25-26a25,25,0,0,0,50,0,25,25,0,0,1-50,0Zm25-24a24,24,0,1,0,24,24A24,24,0,0,0,35,12.47Z"/><rect x="29.62" y="21.94" width="1" height="9.69"/><rect x="29.12" y="21.44" width="2" height="10.69"/><rect x="21.59" y="30.69" width="9.05" height="1"/><path d="M31.14,32.19h-10v-2H31.14Zm-9-1h0Z"/><rect x="39.04" y="21.94" width="1" height="9.69"/><rect x="38.54" y="21.44" width="2" height="10.69"/><rect x="39.02" y="30.69" width="9.05" height="1"/><path d="M48.57,32.19h-10v-2h10Zm-9-1h0Z"/><rect x="21.44" y="41.97" width="9.69" height="1"/><path d="M31.63,43.47H20.94v-2H31.63Zm-9.69-1h0Z"/><rect x="30.19" y="41.94" width="1" height="9.05"/><rect x="29.69" y="41.44" width="2" height="10.05"/><rect x="38.87" y="41.97" width="9.69" height="1"/><path d="M49.06,43.47H38.37v-2H49.06Zm-9.69-1h0Z"/><rect x="38.81" y="41.94" width="1" height="9.05"/><rect x="38.31" y="41.44" width="2" height="10.05"/></svg>