<svg id="Layer_1" data-name="Layer 1" xmlns="http://www.w3.org/2000/svg" viewBox="0 0 70 70"><title>denied</title><path d="M33.87,60.5A25.5,25.5,0,1,1,59.37,35,25.53,25.53,0,0,1,33.87,60.5Zm0-50A24.5,24.5,0,1,0,58.37,35,24.53,24.53,0,0,0,33.87,10.5Z"/><path d="M33.87,61a26,26,0,1,1,26-26A26,26,0,0,1,33.87,61Zm-25-26a25,25,0,0,0,50,0,25,25,0,0,1-50,0Zm25-24a24,24,0,1,0,24,24A24,24,0,0,0,33.87,11Z"/><rect x="33.22" y="10.14" width="1" height="49.99" transform="translate(-14.87 31.78) rotate(-42.23)"/><rect x="32.72" y="9.64" width="2" height="50.99" transform="translate(-14.87 31.78) rotate(-42.23)"/></svg>