<svg id="Layer_1" data-name="Layer 1" xmlns="http://www.w3.org/2000/svg" viewBox="0 0 70 70"><title>desktop</title><path d="M55.45,48.64H14.55A3.6,3.6,0,0,1,11,45V20.4a3.6,3.6,0,0,1,3.6-3.6h40.9a3.6,3.6,0,0,1,3.6,3.6V45A3.6,3.6,0,0,1,55.45,48.64ZM14.55,17.8A2.61,2.61,0,0,0,12,20.4V45a2.6,2.6,0,0,0,2.6,2.6h40.9a2.6,2.6,0,0,0,2.6-2.6V20.4a2.61,2.61,0,0,0-2.6-2.6Z"/><polygon points="43.4 53.21 26.56 52.96 30.71 47.83 31.49 48.45 28.63 51.99 41.4 52.18 38.64 48.44 39.45 47.84 43.4 53.21"/><rect x="11.45" y="40.74" width="47.1" height="1"/></svg>