<svg id="Layer_1" data-name="Layer 1" xmlns="http://www.w3.org/2000/svg" viewBox="0 0 70 70"><title>desktop</title><path d="M55.45,48.64H14.55A3.6,3.6,0,0,1,11,45V20.4a3.6,3.6,0,0,1,3.6-3.6h40.9a3.6,3.6,0,0,1,3.6,3.6V45A3.6,3.6,0,0,1,55.45,48.64ZM14.55,17.8A2.61,2.61,0,0,0,12,20.4V45a2.6,2.6,0,0,0,2.6,2.6h40.9a2.6,2.6,0,0,0,2.6-2.6V20.4a2.61,2.61,0,0,0-2.6-2.6Z"/><path d="M55.45,49.14H14.55a4.11,4.11,0,0,1-4.1-4.1V20.4a4.11,4.11,0,0,1,4.1-4.1h40.9a4.11,4.11,0,0,1,4.1,4.1V45A4.11,4.11,0,0,1,55.45,49.14Zm-44-4.1a3.1,3.1,0,0,0,3.1,3.1h40.9a3.1,3.1,0,0,0,3.1-3.1v0a3.1,3.1,0,0,1-3.1,3.1H14.55A3.1,3.1,0,0,1,11.45,45Zm3.1-26.74a2.1,2.1,0,0,0-2.1,2.1V45a2.1,2.1,0,0,0,2.1,2.1h40.9a2.1,2.1,0,0,0,2.1-2.1V20.4a2.1,2.1,0,0,0-2.1-2.1Z"/><polygon points="43.4 53.21 26.56 52.96 30.71 47.83 31.49 48.45 28.63 51.99 41.4 52.18 38.64 48.44 39.45 47.84 43.4 53.21"/><path d="M44.41,53.73l-18.88-.29,5.11-6.32,1.55,1.26L29.67,51.5l10.73.17-2.46-3.34,1.61-1.19Zm-2-1h0l-1.49-2Zm-14.8-.23,5.39.09Z"/><rect x="11.45" y="40.74" width="47.1" height="1"/><path d="M59.05,42.24H11v-2h48.1Zm-47.1-1h0Z"/></svg>