<svg id="Layer_1" data-name="Layer 1" xmlns="http://www.w3.org/2000/svg" viewBox="0 0 70 70"><title>document-add</title><path d="M57.24,62.26H18.55V7.73l26.28.35L57.24,21.69Zm-37.69-1H56.24V22.08l-11.86-13L19.55,8.75Z"/><path d="M57.74,62.76H18.05V7.23l27,.36L57.74,21.5Zm-38.69-1H56.74V21.89L44.6,8.58,56.74,21.89V61.76Zm1-1H55.74V22.27L44.16,9.57,20.05,9.26Zm-1-52.52,24.4.33Z"/><rect x="37.4" y="26.45" width="1" height="23.61"/><rect x="36.9" y="25.95" width="2" height="24.61"/><rect x="26.09" y="37.76" width="23.61" height="1"/><path d="M50.2,39.26H25.59v-2H50.2Zm-23.61-1h0Z"/></svg>