<svg id="Layer_1" data-name="Layer 1" xmlns="http://www.w3.org/2000/svg" viewBox="0 0 70 70"><title>document-download</title><path d="M55.25,60.26H16.56V5.73l26.28.35L55.25,19.69Zm-37.69-1H54.25V20.08l-11.86-13L17.56,6.75Z"/><path d="M55.75,60.76H16.06V5.23l27,.36L55.75,19.5Zm-38.69-1H54.75V19.89L42.61,6.58,54.75,19.89V59.76Zm1-1H53.75V20.27L42.17,7.57,18.06,7.26Zm-1-52.52,24.4.33Z"/><rect x="33.6" y="47.2" width="17.29" height="0.8" transform="translate(-21.29 43.81) rotate(-45)"/><rect x="33.1" y="46.7" width="18.29" height="1.8" transform="translate(-21.29 43.8) rotate(-44.99)"/><rect x="29.94" y="38.96" width="0.8" height="17.29" transform="translate(-24.77 35.4) rotate(-45)"/><rect x="29.44" y="38.46" width="1.8" height="18.29" transform="translate(-24.77 35.4) rotate(-45)"/><rect x="35.73" y="27.42" width="1" height="25.24"/><rect x="35.73" y="27.42" width="1" height="25.24"/><rect x="35.23" y="26.92" width="2" height="26.24"/></svg>