<svg id="Layer_1" data-name="Layer 1" xmlns="http://www.w3.org/2000/svg" viewBox="0 0 70 70"><title>document-chart</title><path d="M55.48,62.4H16.79V7.87l26.27.35L55.48,21.83Zm-37.69-1H54.48V22.22l-11.86-13L17.79,8.89Z"/><path d="M56,62.9H16.29V7.37l27,.36L56,21.64Zm-38.69-1H55V22L52.67,19.5,55,22V61.9Zm1-1H54V22.41L42.4,9.71,18.29,9.39Zm-1-52.52,23.51.31Z"/><rect x="25.81" y="43.1" width="2" height="13.35"/><path d="M28.31,57h-3V42.6h3Zm-2-1h1V43.6h-1Z"/><rect x="30.34" y="40.58" width="2" height="15.87"/><path d="M32.84,57h-3V40.08h3Zm-2-1h1V41.08h-1Z"/><rect x="34.52" y="37.87" width="2" height="18.58"/><path d="M37,57H34V37.37h3Zm-2-1h1V38.37H35Z"/><rect x="38.87" y="36.35" width="2" height="20.1"/><path d="M41.37,57h-3V35.85h3Zm-2-1h1V36.85h-1Z"/><rect x="43.03" y="33.03" width="2" height="23.42"/><path d="M45.53,57h-3V32.53h3Zm-2-1h1V33.53h-1Z"/></svg>