<svg id="Layer_1" data-name="Layer 1" xmlns="http://www.w3.org/2000/svg" viewBox="0 0 70 70"><title>document-text</title><path d="M56.69,60.29H18V5.77l26.28.35L56.69,19.73ZM19,59.29H55.69V20.11l-11.86-13L19,6.78Z"/><path d="M57.19,60.79H17.5V5.26l27,.36L57.19,19.53Zm-38.69-1H56.19V19.92l-2.58-2.83,2.58,2.83V59.79Zm1-1H55.19V20.31L43.61,7.61,19.5,7.29Zm-1-52.52,23.12.31Z"/><rect x="24.03" y="24.21" width="11.26" height="1"/><path d="M35.79,25.71H23.53v-2H35.79Zm-11.26-1h0Z"/><rect x="33.1" y="30.98" width="18.03" height="1"/><path d="M51.63,32.48h-19v-2h19Zm-18-1h0Z"/><rect x="27.13" y="40.08" width="21.68" height="1"/><path d="M49.31,41.58H26.63v-2H49.31Zm-21.68-1h0Z"/><rect x="24.03" y="48.6" width="18.08" height="1"/><path d="M42.62,50.1H23.53v-2H42.62Zm-18.09-1h0Z"/></svg>