<svg id="Layer_1" data-name="Layer 1" xmlns="http://www.w3.org/2000/svg" viewBox="0 0 70 70"><title>document-copy</title><path d="M54.35,62.26H15.65V7.73l26.28.35L54.35,21.69Zm-37.7-1h36.7V22.08l-11.86-13L16.65,8.75Z"/><path d="M54.85,62.76H15.15V7.23l27,.36L54.85,21.5Zm-38.7-1h37.7V21.89L41.71,8.58,53.85,21.89V61.76Zm1-1h35.7V22.27L41.26,9.57,17.15,9.26Zm-1-52.52,24.41.33Z"/><path d="M50.68,57.05H19.32V12.94l21.31.28,10,11Zm-30.36-1H49.68V24.63l-9.5-10.41L20.32,14Z"/><path d="M51.18,57.55H18.82V12.43l22,.3L51.18,24.05Zm-31.36-1H50.18V24.44L40.4,13.72l9.78,10.72V56.55Zm1-1H49.18V24.83L40,14.71l-19.14-.25Zm-1-42.1L39,13.7Z"/></svg>