<svg id="Layer_1" data-name="Layer 1" xmlns="http://www.w3.org/2000/svg" viewBox="0 0 70 70"><title>dots-alt</title><path d="M35.85,61.85a25.5,25.5,0,1,1,25.5-25.5A25.52,25.52,0,0,1,35.85,61.85Zm0-50a24.5,24.5,0,1,0,24.5,24.5A24.53,24.53,0,0,0,35.85,11.85Z"/><circle cx="35.81" cy="49.97" r="3.48"/><path d="M35.81,54a4,4,0,1,1,4-4A4,4,0,0,1,35.81,54Zm0-7a3,3,0,1,0,3,3A3,3,0,0,0,35.81,47Z"/><circle cx="35.65" cy="36.65" r="3.48"/><path d="M35.65,40.63a4,4,0,1,1,4-4A4,4,0,0,1,35.65,40.63Zm0-7a3,3,0,1,0,3,3A3,3,0,0,0,35.65,33.66Z"/><circle cx="35.65" cy="23.06" r="3.48"/><path d="M35.65,27.05a4,4,0,1,1,4-4A4,4,0,0,1,35.65,27.05Zm0-7a3,3,0,1,0,3,3A3,3,0,0,0,35.65,20.08Z"/></svg>