<svg id="Layer_1" data-name="Layer 1" xmlns="http://www.w3.org/2000/svg" viewBox="0 0 70 70"><title>dots</title><path d="M36.17,61.85a25.5,25.5,0,1,1,25.5-25.5A25.52,25.52,0,0,1,36.17,61.85Zm0-50a24.5,24.5,0,1,0,24.5,24.5A24.53,24.53,0,0,0,36.17,11.85Z"/><circle cx="23.6" cy="36.6" r="3.48"/><path d="M23.6,40.58a4,4,0,1,1,4-4A4,4,0,0,1,23.6,40.58Zm0-7a3,3,0,1,0,3,3A3,3,0,0,0,23.6,33.61Z"/><circle cx="36.92" cy="36.44" r="3.48"/><path d="M36.92,40.42a4,4,0,1,1,4-4A4,4,0,0,1,36.92,40.42Zm0-7a3,3,0,1,0,3,3A3,3,0,0,0,36.92,33.45Z"/><circle cx="50.5" cy="36.44" r="3.48"/><path d="M50.5,40.42a4,4,0,1,1,4-4A4,4,0,0,1,50.5,40.42Zm0-7a3,3,0,1,0,3,3A3,3,0,0,0,50.5,33.45Z"/></svg>