<svg id="Layer_1" data-name="Layer 1" xmlns="http://www.w3.org/2000/svg" viewBox="0 0 70 70"><title>download</title><polygon points="63.46 44.76 8.16 44.76 8.16 34.13 9.16 34.13 9.16 43.76 62.46 43.76 62.46 34.13 63.46 34.13 63.46 44.76"/><path d="M64,45.26H7.66V33.63h2v9.63H62V33.63h2Zm-55.3-1h0Z"/><rect x="33.11" y="36.66" width="17.29" height="0.8" transform="translate(-13.97 40.38) rotate(-45)"/><rect x="32.61" y="36.16" width="18.29" height="1.8" transform="translate(-13.98 40.34) rotate(-44.96)"/><rect x="29.46" y="28.41" width="0.8" height="17.29" transform="translate(-17.46 31.97) rotate(-45)"/><rect x="28.96" y="27.91" width="1.8" height="18.29" transform="translate(-17.46 31.97) rotate(-45)"/><rect x="35.24" y="16.87" width="1" height="25.24"/><rect x="35.24" y="16.87" width="1" height="25.24"/><rect x="34.74" y="16.38" width="2" height="26.24"/></svg>