<svg id="Layer_1" data-name="Layer 1" xmlns="http://www.w3.org/2000/svg" viewBox="0 0 70 70"><title>enlarge</title><path d="M35,60.5A25.5,25.5,0,1,1,60.5,35,25.53,25.53,0,0,1,35,60.5Zm0-50A24.5,24.5,0,1,0,59.5,35,24.53,24.53,0,0,0,35,10.5Z"/><rect x="21.59" y="19.81" width="9.05" height="1"/><rect x="21.5" y="19.78" width="1" height="9.05"/><rect x="39.02" y="19.81" width="9.05" height="1"/><rect x="47.17" y="19.78" width="1" height="9.05"/><rect x="22" y="49.06" width="9.05" height="1"/><rect x="21.91" y="41.03" width="1" height="9.05"/><rect x="39.43" y="49.06" width="9.05" height="1"/><rect x="47.58" y="41.03" width="1" height="9.05"/></svg>