<svg id="Layer_1" data-name="Layer 1" xmlns="http://www.w3.org/2000/svg" viewBox="0 0 70 70"><title>enlarge</title><path d="M35,60.5A25.5,25.5,0,1,1,60.5,35,25.53,25.53,0,0,1,35,60.5Zm0-50A24.5,24.5,0,1,0,59.5,35,24.53,24.53,0,0,0,35,10.5Z"/><path d="M35,61A26,26,0,1,1,61,35,26,26,0,0,1,35,61ZM10,35a25,25,0,0,0,50,0,25,25,0,0,1-50,0ZM35,11A24,24,0,1,0,59,35,24,24,0,0,0,35,11Z"/><rect x="21.59" y="19.81" width="9.05" height="1"/><path d="M31.14,21.31h-10v-2H31.14Zm-9-1h0Z"/><rect x="21.5" y="19.78" width="1" height="9.05"/><rect x="21" y="19.28" width="2" height="10.05"/><rect x="39.02" y="19.81" width="9.05" height="1"/><path d="M48.58,21.31H38.52v-2H48.58Zm-9.06-1h0Z"/><rect x="47.17" y="19.78" width="1" height="9.05"/><rect x="46.67" y="19.28" width="2" height="10.05"/><rect x="22" y="49.06" width="9.05" height="1"/><path d="M31.55,50.56h-10v-2H31.55Zm-9-1h0Z"/><rect x="21.91" y="41.03" width="1" height="9.05"/><rect x="21.41" y="40.53" width="2" height="10.05"/><rect x="39.43" y="49.06" width="9.05" height="1"/><path d="M49,50.56H38.93v-2H49Zm-9.06-1h0Z"/><rect x="47.58" y="41.03" width="1" height="9.05"/><rect x="47.08" y="40.53" width="2" height="10.05"/></svg>