<svg id="Layer_1" data-name="Layer 1" xmlns="http://www.w3.org/2000/svg" viewBox="0 0 70 70"><title>external</title><path d="M43.48,50.51H22.29a4,4,0,0,1-4-4V27.44a4,4,0,0,1,4-4H43.48a4,4,0,0,1,4,4V46.53A4,4,0,0,1,43.48,50.51Zm-21.19-26a3,3,0,0,0-3,3V46.53a3,3,0,0,0,3,3H43.48a3,3,0,0,0,3-3V27.44a3,3,0,0,0-3-3Z"/><path d="M43.48,51H22.29a4.49,4.49,0,0,1-4.48-4.48V27.44A4.49,4.49,0,0,1,22.29,23H43.48A4.49,4.49,0,0,1,48,27.44V46.53A4.49,4.49,0,0,1,43.48,51ZM18.81,46.53A3.48,3.48,0,0,0,22.29,50H43.48A3.49,3.49,0,0,0,47,46.53v0A3.49,3.49,0,0,1,43.48,50H22.29A3.48,3.48,0,0,1,18.81,46.53ZM22.29,25a2.48,2.48,0,0,0-2.48,2.48V46.53A2.48,2.48,0,0,0,22.29,49H43.48A2.49,2.49,0,0,0,46,46.53V27.44A2.49,2.49,0,0,0,43.48,25Z"/><rect x="27.42" y="27.31" width="28.88" height="1" transform="translate(-7.41 37.74) rotate(-45)"/><rect x="26.92" y="26.81" width="29.88" height="2" transform="translate(-7.41 37.74) rotate(-45)"/><rect x="47.76" y="12.8" width="1" height="8.72" transform="translate(30.64 65.25) rotate(-89.45)"/><path d="M53.11,18.2l-9.72-.09,0-2,9.72.09ZM44.4,17.12l7.72.07Z"/><rect x="48.1" y="20.94" width="8.72" height="1" transform="translate(30.51 73.69) rotate(-89.44)"/><path d="M53.41,26.31l-2,0,.1-9.72,2,0Zm-1-1,.08-7.72Z"/></svg>