<svg id="Layer_1" data-name="Layer 1" xmlns="http://www.w3.org/2000/svg" viewBox="0 0 70 70"><title>external</title><path d="M43.48,50.51H22.29a4,4,0,0,1-4-4V27.44a4,4,0,0,1,4-4H43.48a4,4,0,0,1,4,4V46.53A4,4,0,0,1,43.48,50.51Zm-21.19-26a3,3,0,0,0-3,3V46.53a3,3,0,0,0,3,3H43.48a3,3,0,0,0,3-3V27.44a3,3,0,0,0-3-3Z"/><rect x="27.42" y="27.31" width="28.88" height="1" transform="translate(-7.41 37.74) rotate(-45)"/><rect x="47.76" y="12.8" width="1" height="8.72" transform="translate(30.64 65.25) rotate(-89.45)"/><rect x="48.1" y="20.94" width="8.72" height="1" transform="translate(30.51 73.69) rotate(-89.44)"/></svg>