<svg id="Layer_1" data-name="Layer 1" xmlns="http://www.w3.org/2000/svg" viewBox="0 0 70 70"><title>filter</title><path d="M53.74,57.08H10.68V42.63l14-21.81-.1-9.77h15l-.21,9.14L53.74,43.41Zm-42.06-1H52.74V43.69L38.35,20.46l.19-8.41h-13l.1,9.06-14,21.81Z"/><path d="M54.24,57.58H10.18V42.48l14-21.8-.11-10.13h16l-.22,9.5L54.24,43.26Zm-43.06-1H53.24v-13l-5.16-8.33,5.16,8.33v13Zm1-1H52.24V43.83L37.84,20.6l.19-8h-12l.1,8.71-14,21.81ZM25.07,12.11,25.16,21,13.27,39.51,25.16,21Zm14-.56,0,2.32Z"/><path d="M26.26,51.11A49,49,0,0,1,11,48.35l.35-.94c.13.05,13.28,4.85,22.94,1.47a12.5,12.5,0,0,0,7-5.57c1.76-2.57,3.27-4.78,10.13-3.48l-.18,1c-6.22-1.18-7.44.6-9.12,3.07a13.53,13.53,0,0,1-7.46,5.95A25.53,25.53,0,0,1,26.26,51.11Z"/><path d="M26.26,51.61a49.79,49.79,0,0,1-15.43-2.79l-.47-.18.7-1.87.46.17c.13.05,13.13,4.79,22.6,1.47A12.05,12.05,0,0,0,40.84,43c1.78-2.6,3.45-5.06,10.64-3.69l.49.09-.38,2-.49-.09c-5.89-1.13-7,.45-8.61,2.85a14,14,0,0,1-7.71,6.14A25.71,25.71,0,0,1,26.26,51.61ZM11.65,48.05a48.76,48.76,0,0,0,14.61,2.56,25.52,25.52,0,0,0,7.55-1c-8.67,2.68-19.76-.72-22.16-1.53Zm32.79-7.39a6.33,6.33,0,0,0-2,1.84A6.33,6.33,0,0,1,44.44,40.66Z"/></svg>