<svg id="Layer_1" data-name="Layer 1" xmlns="http://www.w3.org/2000/svg" viewBox="0 0 70 70"><title>finger-print</title><path d="M34.19,54.17A20.14,20.14,0,0,1,14.88,39.59l1-.27a19.08,19.08,0,1,0-.73-5.23h-1A20.08,20.08,0,1,1,34.19,54.17Z"/><path d="M34.19,54.67a20.66,20.66,0,0,1-19.8-14.94l-.13-.48,1.92-.55.14.48a18.58,18.58,0,1,0-.71-5.09v.5h-2v-.5A20.58,20.58,0,1,1,34.19,54.67Zm-.4-1h0ZM15.5,39.94A19.67,19.67,0,0,0,33.76,53.67,19.67,19.67,0,0,1,15.5,39.94ZM34.19,14.51A19.6,19.6,0,0,1,53.77,34.09a19.58,19.58,0,0,0-39.15-.5A19.61,19.61,0,0,1,34.19,14.51Z"/><path d="M34.1,51A16.47,16.47,0,1,1,49.51,28.74l-.94.35a15.46,15.46,0,1,0,1,6.36l1,.06A16.48,16.48,0,0,1,34.1,51Z"/><path d="M34.1,51.51A17,17,0,1,1,50,28.56l.17.47-1.87.7-.17-.47A15,15,0,1,0,49,35.42l0-.49,2,.11,0,.5A17,17,0,0,1,34.1,51.51Zm-16-17a16,16,0,0,0,16,16A16,16,0,0,1,18.13,34.55ZM42.69,48a15.92,15.92,0,0,1-8.59,2.51A15.92,15.92,0,0,0,42.69,48ZM34.1,18.58A16,16,0,0,1,46.33,24.3,16,16,0,0,0,34.1,18.58Z"/><path d="M34.65,47.2A12.67,12.67,0,0,1,22,34.55a13,13,0,0,1,.07-1.4l1,.11A10.91,10.91,0,0,0,23,34.55a11.66,11.66,0,1,0,2.35-7l-.8-.6a12.55,12.55,0,0,1,10.11-5,12.66,12.66,0,0,1,0,25.31Z"/><path d="M34.65,47.7A13.17,13.17,0,0,1,21.49,34.55a11.53,11.53,0,0,1,.08-1.45l.05-.5,2,.22-.06.5q-.06.6-.06,1.23a11.14,11.14,0,1,0,2.24-6.72l-.3.4L23.84,27l.3-.4A13.16,13.16,0,1,1,34.65,47.7ZM22.49,34.55A12.17,12.17,0,0,0,34.65,46.7,12.17,12.17,0,0,1,22.49,34.55ZM34.65,22.39A12.17,12.17,0,0,1,46.8,34.55,12.16,12.16,0,0,0,26.3,25.7,12.08,12.08,0,0,1,34.65,22.39ZM22.52,33.7c0,.28,0,.56,0,.85,0-.29,0-.57,0-.85Zm3.78-8Z"/><path d="M34.65,44.05a9.51,9.51,0,1,1,0-19,9.68,9.68,0,0,1,2.34.29l-.24,1a8.69,8.69,0,0,0-2.1-.26,8.51,8.51,0,1,0,8.5,8.51A8.81,8.81,0,0,0,43,33.09l1-.17a8.82,8.82,0,0,1,.14,1.63A9.51,9.51,0,0,1,34.65,44.05Z"/><path d="M34.65,44.55a10,10,0,1,1,0-20,9.78,9.78,0,0,1,2.47.31l.48.12-.49,1.94-.49-.13a8.11,8.11,0,0,0-2-.24,8,8,0,1,0,8,8,9,9,0,0,0-.11-1.38l-.09-.49,2-.34.09.49a10.89,10.89,0,0,1,.14,1.72A10,10,0,0,1,34.65,44.55Zm-9-10a9,9,0,0,0,9,9A9,9,0,0,1,25.64,34.55Zm18-1a9.11,9.11,0,0,1,.06,1,9,9,0,0,0-.06-1Zm-7.81-7.89Zm-1.11-.07a8.27,8.27,0,0,1,1.11.07A8.27,8.27,0,0,0,34.67,25.54Zm0,0h0Zm0,0h0Z"/></svg>