<svg id="Layer_1" data-name="Layer 1" xmlns="http://www.w3.org/2000/svg" viewBox="0 0 70 70"><title>finger-print</title><path d="M34.19,54.17A20.14,20.14,0,0,1,14.88,39.59l1-.27a19.08,19.08,0,1,0-.73-5.23h-1A20.08,20.08,0,1,1,34.19,54.17Z"/><path d="M34.1,51A16.47,16.47,0,1,1,49.51,28.74l-.94.35a15.46,15.46,0,1,0,1,6.36l1,.06A16.48,16.48,0,0,1,34.1,51Z"/><path d="M34.65,47.2A12.67,12.67,0,0,1,22,34.55a13,13,0,0,1,.07-1.4l1,.11A10.91,10.91,0,0,0,23,34.55a11.66,11.66,0,1,0,2.35-7l-.8-.6a12.55,12.55,0,0,1,10.11-5,12.66,12.66,0,0,1,0,25.31Z"/><path d="M34.65,44.05a9.51,9.51,0,1,1,0-19,9.68,9.68,0,0,1,2.34.29l-.24,1a8.69,8.69,0,0,0-2.1-.26,8.51,8.51,0,1,0,8.5,8.51A8.81,8.81,0,0,0,43,33.09l1-.17a8.82,8.82,0,0,1,.14,1.63A9.51,9.51,0,0,1,34.65,44.05Z"/></svg>