<svg id="Layer_1" data-name="Layer 1" xmlns="http://www.w3.org/2000/svg" viewBox="0 0 70 70"><title>flash</title><path d="M27.78,51.68l7.93-18.4-10.9-4.69L47,15.43l-7.8,18.13,11.09,4.78ZM27,28.45l10,4.31-7.1,16.5L48.13,38.48l-10.21-4.4,7-16.22Z"/><path d="M26.72,52.89l8.33-19.35L23.71,28.66l24.4-14.44L39.9,33.3l11.53,5Zm.81-23.68L36.37,33,28.85,50.47l4.71-2.79-4.71,2.79L36.37,33Zm.59-.83,9.56,4.12L31,48,47,38.55l-9.76-4.2,6.58-15.28Zm10.46,5.44,8.9,3.84-8.9-3.84L46,16.65l-6.41,3.79L46,16.65Z"/></svg>