<svg id="Layer_1" data-name="Layer 1" xmlns="http://www.w3.org/2000/svg" viewBox="0 0 70 70"><title>folder-remove</title><path d="M57.59,51.07H14.91V19.27l14.32-.34,5.58,5.58H57.59Zm-41.68-1H56.59V25.51H34.39l-5.57-5.57-12.91.3Z"/><path d="M58.09,51.57H14.41V18.78l15-.35L35,24H58.09Zm-42.68-1H57.09v0Zm1-1H56.09V26H34.19l-5.57-5.57-12.21.29Z"/><rect x="27.33" y="36.68" width="17.53" height="0.61"/><rect x="26.83" y="36.18" width="18.53" height="1.61"/><path d="M45.23,37.6H27V36.37H45.23ZM27.7,37h0Z"/><path d="M45.73,38.1H26.46V35.87H45.73Zm-1.24-1h.24v-.23h-.24Zm-17,0h.24v-.23h-.24Z"/></svg>