<svg id="Layer_1" data-name="Layer 1" xmlns="http://www.w3.org/2000/svg" viewBox="0 0 70 70"><title>folder-add</title><path d="M58.12,49.51H15.44V17.72l14.32-.34L35.33,23H58.12Zm-41.68-1H57.12V24H34.92l-5.57-5.57-12.91.3Z"/><path d="M58.62,50H14.94V17.23l15-.36,5.58,5.59H58.62ZM15.94,49H57.62v0Zm1-1H56.62V24.46H34.71l-5.56-5.57-12.21.29Z"/><rect x="36.46" y="26.68" width="0.74" height="17.53"/><rect x="35.96" y="26.18" width="1.74" height="18.53"/><rect x="36.09" y="26.31" width="1.48" height="18.27"/><path d="M38.07,45.09H35.59V25.81h2.48Zm-1.48-1h.48V26.81h-.48Z"/><rect x="28.07" y="35.08" width="17.53" height="0.74"/><rect x="27.56" y="34.58" width="18.53" height="1.74"/><path d="M46,36.19H27.69V34.71H46Zm-17.53-.74h0Z"/><path d="M46.47,36.69H27.19V34.21H46.47Zm-1.24-1h.24v-.48h-.24Zm-17,0h.25v-.48h-.25Z"/></svg>