<svg id="Layer_1" data-name="Layer 1" xmlns="http://www.w3.org/2000/svg" viewBox="0 0 70 70"><title>gift</title><path d="M54.63,54.63H17.48V26.92H54.63Zm-36.15-1H53.63V27.92H18.48Z"/><path d="M55.13,55.13H17V26.42H55.13ZM18,54.13H54.13v0Zm1-1H53.13V28.42H19Z"/><rect x="35.56" y="28.19" width="1" height="25.94"/><rect x="35.06" y="27.69" width="2" height="26.94"/><rect x="17.98" y="40.27" width="36.15" height="1"/><path d="M54.63,41.77H17.48v-2H54.63Zm-36.15-1h0Z"/><path d="M35.28,27.83,34.72,27c1.44-1,5.06-4.07,4.49-6.42-.44-1.8-3.3-3.09-8.27-3.71-5.41-.67-6.66.3-6.92.95-.81,2,4,6.68,7.29,9.19l-.62.79c-.92-.71-9-7-7.6-10.37.68-1.63,3.29-2.14,8-1.55,5.58.7,8.56,2.16,9.12,4.47C41,23.86,35.52,27.67,35.28,27.83Z"/><path d="M35.15,28.53,34,26.88l.42-.29c1.59-1.09,4.74-4,4.28-5.88-.38-1.56-3.17-2.75-7.84-3.33-5.55-.69-6.31.41-6.4.64-.58,1.4,3.22,5.58,7.13,8.61l.4.3-1.23,1.59-.39-.31c-1.56-1.2-9.24-7.38-7.76-11,.78-1.89,3.48-2.48,8.49-1.85,5.81.72,8.93,2.3,9.54,4.84.91,3.76-4.48,7.58-5.1,8Zm.25-1.41h0A15.74,15.74,0,0,0,38.61,24,16.79,16.79,0,0,1,35.4,27.12ZM25,21.56a34.74,34.74,0,0,0,5.65,5.55h0A38.14,38.14,0,0,1,25,21.56ZM23.68,17.4a1.71,1.71,0,0,0-.13.23l-.06.19a1.34,1.34,0,0,1,.07-.18A.9.9,0,0,1,23.68,17.4Zm4.05-1.25a10.27,10.27,0,0,0-2.34.23,13.92,13.92,0,0,1,4.19-.14C28.91,16.18,28.29,16.15,27.73,16.15Z"/><path d="M39.53,27.86c-.46-.24-4.49-2.43-4.18-4.71.18-1.29,1.58-2.2,4.31-2.8,2.52-.55,4-.33,4.61.67,1.15,2-2.32,6-3,6.74l-.74-.68c1.55-1.71,3.48-4.56,2.91-5.56-.32-.54-1.61-.61-3.54-.19-2.17.47-3.42,1.17-3.53,2C36.18,24.49,38.5,26.19,40,27Z"/><path d="M39.74,28.54l-.44-.24c-.8-.42-4.79-2.65-4.44-5.22.2-1.52,1.74-2.57,4.69-3.22,2.76-.6,4.45-.31,5.16.91,1.28,2.22-2.05,6.17-3.1,7.32l-.34.37-1-.92Zm-1.58-2.13a11.14,11.14,0,0,0,1.17.77h0A12.21,12.21,0,0,1,38.16,26.41Zm3,.63h0a15.55,15.55,0,0,0,2.35-3.45A17.31,17.31,0,0,1,41.2,27ZM42,21.55a9.56,9.56,0,0,0-2,.27c-2.23.48-3.09,1.13-3.14,1.53-.11.77,1.7,2.3,3.39,3.18l.06,0c1.87-2.12,3-4.29,2.68-4.8C42.93,21.69,42.66,21.55,42,21.55Zm0-1q1.44,0,1.86.72l0,.07a.43.43,0,0,1,0-.07c-.41-.71-1.6-.9-3.53-.54A9.17,9.17,0,0,1,42,20.55Z"/></svg>