<svg id="Layer_1" data-name="Layer 1" xmlns="http://www.w3.org/2000/svg" viewBox="0 0 70 70"><title>house</title><rect x="12.5" y="24.95" width="27.28" height="1" transform="translate(-10.34 25.94) rotate(-45)"/><rect x="12" y="24.45" width="28.28" height="2" transform="translate(-10.34 25.94) rotate(-45)"/><rect x="44.6" y="12.21" width="1" height="27.28" transform="translate(-5.07 39.46) rotate(-45)"/><rect x="44.1" y="11.71" width="2" height="28.28" transform="translate(-5.07 39.46) rotate(-45)"/><polygon points="50.85 54.5 20.5 54.5 20.5 30.58 21.5 30.58 21.5 53.5 49.85 53.5 49.85 31.1 50.85 31.1 50.85 54.5"/><path d="M51.35,55H20V30.08h2V53H49.35V30.6h2ZM21,54h0Z"/><polygon points="40.47 54.29 39.47 54.29 39.47 46.4 30.92 46.4 30.92 54.29 29.92 54.29 29.92 45.4 40.47 45.4 40.47 54.29"/><path d="M41,54.79H39V46.9H31.42v7.89h-2V44.9H41Zm-10.55-1V45.9h0Z"/></svg>