<svg id="Layer_1" data-name="Layer 1" xmlns="http://www.w3.org/2000/svg" viewBox="0 0 70 70"><title>library</title><rect x="13.98" y="25.4" width="27.28" height="1" transform="translate(-10.22 27.11) rotate(-45)"/><rect x="13.48" y="24.9" width="28.28" height="2" transform="translate(-10.22 27.11) rotate(-45)"/><rect x="46.08" y="12.65" width="1" height="27.28" transform="translate(-4.95 40.64) rotate(-45)"/><rect x="45.58" y="12.15" width="2" height="28.28" transform="translate(-4.95 40.64) rotate(-45)"/><polygon points="52.34 54.94 21.98 54.94 21.98 30.53 51.31 30.53 51.31 31.53 22.98 31.53 22.98 53.94 51.34 53.94 51.34 31.55 52.34 31.55 52.34 54.94"/><path d="M52.84,55.44H21.48V30H51.81v1h1Zm-30.36-1h0Zm1-1H50.84V32H23.48Z"/><rect x="27.12" y="37" width="1" height="12.58"/><rect x="26.62" y="36.5" width="2" height="13.58"/><rect x="33.11" y="37" width="1" height="12.58"/><rect x="32.61" y="36.5" width="2" height="13.58"/><rect x="45.6" y="37" width="1" height="12.58"/><rect x="45.1" y="36.5" width="2" height="13.58"/><rect x="33.8" y="42.94" width="13.23" height="1" transform="translate(-17.29 57.23) rotate(-60.51)"/><rect x="33.3" y="42.44" width="14.23" height="2" transform="translate(-17.29 57.24) rotate(-60.51)"/></svg>