<svg id="Layer_1" data-name="Layer 1" xmlns="http://www.w3.org/2000/svg" viewBox="0 0 70 70"><title>lock</title><path d="M55.87,54.05H18.71a5.45,5.45,0,0,1-5.44-5.44v-18a5.45,5.45,0,0,1,5.44-5.44H55.87a5.45,5.45,0,0,1,5.44,5.44v18A5.45,5.45,0,0,1,55.87,54.05ZM18.71,26.18a4.44,4.44,0,0,0-4.44,4.44v18a4.44,4.44,0,0,0,4.44,4.44H55.87a4.44,4.44,0,0,0,4.44-4.44v-18a4.44,4.44,0,0,0-4.44-4.44Z"/><path d="M55.87,54.55H18.71a6,6,0,0,1-5.94-5.94v-18a5.94,5.94,0,0,1,5.94-5.94H55.87a6,6,0,0,1,5.94,5.94v18A6,6,0,0,1,55.87,54.55Zm-42.1-5.94a4.94,4.94,0,0,0,4.94,4.94H55.87a5,5,0,0,0,4.94-4.94v0a5,5,0,0,1-4.94,4.94H18.71A4.94,4.94,0,0,1,13.77,48.61Zm4.94-21.93a3.94,3.94,0,0,0-3.94,3.94v18a4,4,0,0,0,3.94,3.94H55.87a4,4,0,0,0,3.94-3.94v-18a3.94,3.94,0,0,0-3.94-3.94Z"/><rect x="36.79" y="33.48" width="1" height="10.78"/><rect x="36.29" y="32.98" width="2" height="11.78"/><path d="M47.88,25.68h-1a10,10,0,1,0-20.09,0h-1a11,11,0,1,1,22.09,0Z"/><path d="M48.38,26.18h-2v-.5a9.55,9.55,0,1,0-19.09,0v.5h-2v-.5a11.55,11.55,0,1,1,23.09,0Zm-1-1a10.55,10.55,0,0,0-21.07,0,10.55,10.55,0,0,1,21.07,0Z"/></svg>