<svg id="Layer_1" data-name="Layer 1" xmlns="http://www.w3.org/2000/svg" viewBox="0 0 70 70"><title>login</title><path d="M36.4,55.71H21.53a8.66,8.66,0,0,1-8.65-8.66V23a8.66,8.66,0,0,1,8.65-8.66H36.4A8.67,8.67,0,0,1,45.06,23v3.37h-1V23a7.67,7.67,0,0,0-7.66-7.66H21.53A7.66,7.66,0,0,0,13.88,23v24.1a7.66,7.66,0,0,0,7.65,7.66H36.4a7.67,7.67,0,0,0,7.66-7.66V39.87h1v7.18A8.67,8.67,0,0,1,36.4,55.71Z"/><path d="M36.4,56.21H21.53a9.16,9.16,0,0,1-9.15-9.16V23a9.16,9.16,0,0,1,9.15-9.16H36.4A9.17,9.17,0,0,1,45.56,23v3.87h-2V23a7.17,7.17,0,0,0-7.16-7.16H21.53A7.16,7.16,0,0,0,14.38,23v24.1a7.16,7.16,0,0,0,7.15,7.16H36.4a7.17,7.17,0,0,0,7.16-7.16V39.37h2v7.68A9.17,9.17,0,0,1,36.4,56.21Zm-23-9.16a8.16,8.16,0,0,0,8.15,8.16h0A8.16,8.16,0,0,1,13.38,47.05ZM44.56,25.82v0Z"/><rect x="32.72" y="31.21" width="0.8" height="17.29" transform="translate(-18.44 34.59) rotate(-44.44)"/><rect x="32.22" y="30.71" width="1.8" height="18.29" transform="translate(-18.43 34.58) rotate(-44.43)"/><rect x="24.59" y="27.56" width="17.29" height="0.8" transform="translate(-10.07 31.27) rotate(-44.45)"/><rect x="24.09" y="27.06" width="18.29" height="1.8" transform="translate(-10.07 31.27) rotate(-44.45)"/><line x1="53.36" y1="34.04" x2="28.12" y2="33.79"/><rect x="40.24" y="21.3" width="1" height="25.24" transform="translate(6.43 74.32) rotate(-89.44)"/><rect x="40.24" y="21.3" width="1" height="25.24" transform="translate(6.43 74.32) rotate(-89.44)"/><rect x="39.74" y="20.8" width="2" height="26.24" transform="translate(6.43 74.32) rotate(-89.44)"/></svg>