<svg id="Layer_1" data-name="Layer 1" xmlns="http://www.w3.org/2000/svg" viewBox="0 0 70 70"><title>logout</title><path d="M38.08,57.71H23.21a8.66,8.66,0,0,1-8.65-8.66V25a8.66,8.66,0,0,1,8.65-8.66H38.08A8.66,8.66,0,0,1,46.73,25v3.37h-1V25a7.66,7.66,0,0,0-7.65-7.66H23.21A7.66,7.66,0,0,0,15.56,25v24.1a7.66,7.66,0,0,0,7.65,7.66H38.08a7.66,7.66,0,0,0,7.65-7.66V41.87h1v7.18A8.66,8.66,0,0,1,38.08,57.71Z"/><path d="M38.08,58.21H23.21a9.16,9.16,0,0,1-9.15-9.16V25a9.16,9.16,0,0,1,9.15-9.16H38.08A9.16,9.16,0,0,1,47.23,25v3.87h-2V25a7.16,7.16,0,0,0-7.15-7.16H23.21A7.16,7.16,0,0,0,16.06,25v24.1a7.16,7.16,0,0,0,7.15,7.16H38.08a7.16,7.16,0,0,0,7.15-7.16V41.37h2v7.68A9.16,9.16,0,0,1,38.08,58.21Zm-23-9.16a8.16,8.16,0,0,0,8.15,8.16h0A8.16,8.16,0,0,1,15.06,49.05ZM46.23,27.82v0Z"/><rect x="56.41" y="21.35" width="0.8" height="17.29" transform="translate(-4.75 48.36) rotate(-44.44)"/><rect x="55.91" y="20.85" width="1.8" height="18.29" transform="translate(-4.76 48.35) rotate(-44.43)"/><rect x="48.05" y="41.5" width="17.29" height="0.8" transform="translate(-13.12 51.68) rotate(-44.45)"/><rect x="47.55" y="41" width="18.29" height="1.8" transform="translate(-13.12 51.68) rotate(-44.45)"/><line x1="36.57" y1="35.81" x2="61.8" y2="36.06"/><rect x="48.68" y="23.32" width="1" height="25.24" transform="translate(12.77 84.77) rotate(-89.44)"/><rect x="48.68" y="23.32" width="1" height="25.24" transform="translate(12.77 84.77) rotate(-89.44)"/><rect x="48.18" y="22.82" width="2" height="26.24" transform="translate(12.77 84.77) rotate(-89.44)"/></svg>