<svg id="Layer_1" data-name="Layer 1" xmlns="http://www.w3.org/2000/svg" viewBox="0 0 70 70"><title>mail-open</title><path d="M58.45,56.43H13.55a4.18,4.18,0,0,1-4.18-4.17V23.48a4.19,4.19,0,0,1,4.18-4.18v1a3.19,3.19,0,0,0-3.18,3.18V52.26a3.18,3.18,0,0,0,3.18,3.17h44.9a3.17,3.17,0,0,0,3.18-3.17V23.48a3.18,3.18,0,0,0-3.18-3.18v-1a4.18,4.18,0,0,1,4.18,4.18V52.26A4.18,4.18,0,0,1,58.45,56.43Z"/><path d="M58.45,56.93H13.55a4.68,4.68,0,0,1-4.68-4.67V23.48a4.69,4.69,0,0,1,4.68-4.68h.5v2h-.5a2.68,2.68,0,0,0-2.68,2.68V52.26a2.68,2.68,0,0,0,2.68,2.67h44.9a2.68,2.68,0,0,0,2.68-2.67V23.48a2.68,2.68,0,0,0-2.68-2.68H58v-2h.5a4.69,4.69,0,0,1,4.68,4.68V52.26A4.68,4.68,0,0,1,58.45,56.93ZM9.87,52.26a3.68,3.68,0,0,0,3.68,3.67h0A3.68,3.68,0,0,1,9.87,52.26ZM59,19.84a3.67,3.67,0,0,1,3.18,3.64A3.67,3.67,0,0,0,59,19.84Z"/><polygon points="36.7 40.48 10.22 22.62 10.78 21.79 36.69 39.26 61.21 21.8 61.79 22.61 36.7 40.48"/><path d="M36.71,41.08,9.52,22.75l1.12-1.66,26,17.56L61.33,21.1l1.16,1.63Zm-25.8-18.6L36.69,39.87,55.94,26.16,36.69,39.87Z"/><rect x="7.55" y="45.25" width="27.84" height="1" transform="translate(-24.45 24.64) rotate(-40.16)"/><rect x="7.05" y="44.75" width="28.84" height="2" transform="translate(-24.44 24.63) rotate(-40.16)"/><rect x="50.34" y="32.46" width="1" height="26.59" transform="translate(-17.24 52.35) rotate(-47.52)"/><path d="M60.34,55.81,40,37.17l1.35-1.47L61.69,54.33ZM41.4,37.11,60.28,54.39h0L41.41,37.11Z"/><polygon points="10.78 22.45 10.22 21.62 36.7 3.76 61.79 21.63 61.21 22.44 36.69 4.98 10.78 22.45"/><path d="M10.64,23.14,9.52,21.48,36.71,3.15,62.49,21.51l-1.16,1.63L36.68,5.59Zm.27-1.39L36.69,4.37,55.94,18.08,36.69,4.37Z"/></svg>