<svg id="Layer_1" data-name="Layer 1" xmlns="http://www.w3.org/2000/svg" viewBox="0 0 70 70"><title>mic-mute</title><path d="M31.88,42.2a8.57,8.57,0,0,1-3.46-6.91V18.65a8.63,8.63,0,0,1,17.26,0v7.79h-1V18.65a7.63,7.63,0,0,0-15.26,0V35.29a7.6,7.6,0,0,0,3.06,6.11Z"/><path d="M32,42.9l-.4-.3a9.07,9.07,0,0,1-3.66-7.31V18.65a9.13,9.13,0,0,1,18.26,0v8.29h-2V18.65a7.13,7.13,0,0,0-14.26,0V35.29A7.09,7.09,0,0,0,32.78,41l.4.3ZM31.23,41c.18.18.37.35.56.52h0C31.6,41.32,31.41,41.15,31.23,41Zm14-15v0Z"/><path d="M37.05,43.92a8.47,8.47,0,0,1-3.71-.84l.43-.9a7.63,7.63,0,0,0,10.91-6.89V29.16h1v6.13A8.64,8.64,0,0,1,37.05,43.92Z"/><path d="M37.05,44.42a9,9,0,0,1-3.92-.89l-.46-.21.87-1.81.45.22a7,7,0,0,0,3.06.69,7.14,7.14,0,0,0,7.13-7.13V28.66h2v6.63A9.14,9.14,0,0,1,37.05,44.42Zm-3-1.59a8.1,8.1,0,0,0,3,.59,8.1,8.1,0,0,1-3-.59Z"/><path d="M28.12,46.13a8.63,8.63,0,0,1-4.36-7.49c0-.21,0-.41,0-.62l1,.07c0,.18,0,.37,0,.55a7.63,7.63,0,0,0,3.86,6.62Z"/><path d="M28.31,46.81l-.43-.24a9.14,9.14,0,0,1-4.62-7.93c0-.22,0-.44,0-.65l0-.5,2,.14,0,.5c0,.17,0,.34,0,.51a7.14,7.14,0,0,0,3.6,6.19l.44.25Zm-4-8.25v0Z"/><path d="M30.11,47l-.37-.11.3-1,.33.1Z"/><path d="M41.73,47.25H32.37a8.61,8.61,0,0,1-2.26-.3l.26-1a7.89,7.89,0,0,0,2,.26h9.36a7.62,7.62,0,0,0,7.62-7.61c0-.26,0-.52,0-.78l1-.1a8.49,8.49,0,0,1,.05.88A8.63,8.63,0,0,1,41.73,47.25Z"/><path d="M41.73,47.75H32.37A8.77,8.77,0,0,1,30,47.43l-.49-.13L30,45.37l.48.13a7,7,0,0,0,1.87.25h9.36a7.12,7.12,0,0,0,7.12-7.11c0-.25,0-.49,0-.73l-.05-.5,2-.2,0,.5c0,.31.05.62.05.93A9.12,9.12,0,0,1,41.73,47.75ZM31.34,46.69a8.89,8.89,0,0,0,1,.06h0A8.89,8.89,0,0,1,31.34,46.69Zm0,0h0Zm0,0Z"/><rect x="36.55" y="46.75" width="1" height="13.7"/><rect x="36.05" y="46.25" width="2" height="14.7"/><rect x="29.29" y="59.95" width="14.71" height="1"/><path d="M44.5,61.45H28.79v-2H44.5Zm-14.71-1h0Z"/><rect x="16.01" y="51.28" width="15.45" height="1" transform="translate(-31.12 36.44) rotate(-49.75)"/><path d="M19.18,58.71l-1.52-1.3L28.28,44.86l1.53,1.29Zm-.11-1.41,9.33-11Z"/><rect x="24.22" y="35.66" width="25.48" height="1" transform="translate(-14.52 41) rotate(-49.75)"/><path d="M29.17,46.91l-1.53-1.29,17.1-20.21,1.53,1.29Zm-.12-1.41L44.86,26.82Z"/><rect x="42.49" y="20.14" width="15.2" height="1" transform="translate(1.97 45.54) rotate(-49.75)"/><path d="M45.62,27.47l-1.52-1.3L54.56,13.81l1.53,1.29Zm-.11-1.41,9.17-10.84Z"/></svg>