<svg id="Layer_1" data-name="Layer 1" xmlns="http://www.w3.org/2000/svg" viewBox="0 0 70 70"><title>mic</title><path d="M35,43.44a8.64,8.64,0,0,1-8.63-8.63V18.16a8.63,8.63,0,0,1,17.26,0V34.81A8.64,8.64,0,0,1,35,43.44Zm0-32.91a7.64,7.64,0,0,0-7.63,7.63V34.81a7.63,7.63,0,0,0,15.26,0V18.16A7.64,7.64,0,0,0,35,10.53Z"/><path d="M35,43.94a9.15,9.15,0,0,1-9.13-9.13V18.16a9.13,9.13,0,0,1,18.26,0V34.81A9.15,9.15,0,0,1,35,43.94Zm-8.13-9.13a8.13,8.13,0,0,0,16.26,0v0a8.13,8.13,0,0,1-16.26,0ZM35,11a7.14,7.14,0,0,0-7.13,7.13V34.81a7.13,7.13,0,0,0,14.26,0V18.16A7.14,7.14,0,0,0,35,11Z"/><path d="M39.68,46.77H30.32a8.62,8.62,0,0,1-8.61-8.61c0-.21,0-.42,0-.62l1,.07a5,5,0,0,0,0,.55,7.62,7.62,0,0,0,7.61,7.61h9.36a7.62,7.62,0,0,0,7.61-7.61,6.57,6.57,0,0,0,0-.78l1-.1a8.51,8.51,0,0,1,0,.88A8.62,8.62,0,0,1,39.68,46.77Z"/><path d="M39.68,47.27H30.32a9.12,9.12,0,0,1-9.11-9.11c0-.22,0-.44,0-.66l0-.5,2,.14,0,.5c0,.17,0,.34,0,.52a7.12,7.12,0,0,0,7.11,7.11h9.36a7.12,7.12,0,0,0,7.11-7.11c0-.25,0-.49,0-.73l0-.5,2-.2,0,.5c0,.3,0,.61,0,.93A9.12,9.12,0,0,1,39.68,47.27ZM22.21,38.16a8.12,8.12,0,0,0,8.11,8.11h0A8.12,8.12,0,0,1,22.21,38.16Zm25.58,0h0Zm-25.58,0h0Zm0,0h0Zm0,0h0Z"/><rect x="34.5" y="46.27" width="1" height="13.7"/><rect x="34" y="45.77" width="2" height="14.7"/><rect x="27.24" y="59.47" width="14.71" height="1"/><path d="M42.45,61H26.74V59H42.45ZM27.74,60h0Z"/></svg>