<svg id="Layer_1" data-name="Layer 1" xmlns="http://www.w3.org/2000/svg" viewBox="0 0 70 70"><title>mobile</title><path d="M42.09,54.05H28.41a4.89,4.89,0,0,1-4.88-4.88V21.68a4.89,4.89,0,0,1,4.88-4.88H42.09A4.89,4.89,0,0,1,47,21.68V49.17A4.89,4.89,0,0,1,42.09,54.05ZM28.41,17.8a3.88,3.88,0,0,0-3.88,3.88V49.17a3.88,3.88,0,0,0,3.88,3.88H42.09A3.88,3.88,0,0,0,46,49.17V21.68a3.88,3.88,0,0,0-3.88-3.88Z"/><path d="M35.29,52A2.69,2.69,0,1,1,38,49.29,2.7,2.7,0,0,1,35.29,52Zm0-4.38A1.69,1.69,0,1,0,37,49.29,1.69,1.69,0,0,0,35.29,47.6Z"/></svg>