<svg id="Layer_1" data-name="Layer 1" xmlns="http://www.w3.org/2000/svg" viewBox="0 0 70 70"><title>mobile</title><path d="M42.09,54.05H28.41a4.89,4.89,0,0,1-4.88-4.88V21.68a4.89,4.89,0,0,1,4.88-4.88H42.09A4.89,4.89,0,0,1,47,21.68V49.17A4.89,4.89,0,0,1,42.09,54.05ZM28.41,17.8a3.88,3.88,0,0,0-3.88,3.88V49.17a3.88,3.88,0,0,0,3.88,3.88H42.09A3.88,3.88,0,0,0,46,49.17V21.68a3.88,3.88,0,0,0-3.88-3.88Z"/><path d="M42.09,54.55H28.41A5.39,5.39,0,0,1,23,49.17V21.68a5.39,5.39,0,0,1,5.38-5.38H42.09a5.39,5.39,0,0,1,5.38,5.38V49.17A5.39,5.39,0,0,1,42.09,54.55ZM24,49.17a4.39,4.39,0,0,0,4.38,4.38H42.09a4.39,4.39,0,0,0,4.38-4.38v0a4.39,4.39,0,0,1-4.38,4.38H28.41A4.39,4.39,0,0,1,24,49.17ZM28.41,18.3A3.39,3.39,0,0,0,25,21.68V49.17a3.39,3.39,0,0,0,3.38,3.38H42.09a3.38,3.38,0,0,0,3.38-3.38V21.68a3.38,3.38,0,0,0-3.38-3.38Z"/><path d="M35.29,52A2.69,2.69,0,1,1,38,49.29,2.7,2.7,0,0,1,35.29,52Zm0-4.38A1.69,1.69,0,1,0,37,49.29,1.69,1.69,0,0,0,35.29,47.6Z"/><path d="M35.29,52.48a3.19,3.19,0,1,1,3.19-3.19A3.19,3.19,0,0,1,35.29,52.48ZM33.1,49.29a2.19,2.19,0,0,0,4.38,0,2.19,2.19,0,0,1-4.38,0Zm2.19-1.19a1.19,1.19,0,0,0,0,2.38,1.19,1.19,0,0,0,0-2.38Z"/></svg>