<svg id="Layer_1" data-name="Layer 1" xmlns="http://www.w3.org/2000/svg" viewBox="0 0 70 70"><title>money</title><path d="M55.68,50.24H16.13a3.69,3.69,0,0,1-3.69-3.69V25.77a3.69,3.69,0,0,1,3.69-3.69H55.68a3.7,3.7,0,0,1,3.69,3.69V46.55A3.7,3.7,0,0,1,55.68,50.24ZM16.13,23.08a2.69,2.69,0,0,0-2.69,2.69V46.55a2.69,2.69,0,0,0,2.69,2.69H55.68a2.7,2.7,0,0,0,2.69-2.69V25.77a2.7,2.7,0,0,0-2.69-2.69Z"/><path d="M35.9,46.4A10.52,10.52,0,0,1,25.14,36.16,10.52,10.52,0,0,1,35.9,25.92,10.52,10.52,0,0,1,46.67,36.16,10.52,10.52,0,0,1,35.9,46.4Zm0-19.48a9.53,9.53,0,0,0-9.76,9.24A9.52,9.52,0,0,0,35.9,45.4a9.52,9.52,0,0,0,9.77-9.24A9.53,9.53,0,0,0,35.9,26.92Z"/><path d="M35.55,40.9V39.69a3.48,3.48,0,0,1-1.84-.53l.29-.8a3.19,3.19,0,0,0,1.73.52,1.27,1.27,0,0,0,1.43-1.18c0-.66-.47-1.07-1.36-1.43-1.22-.48-2-1-2-2.07a2,2,0,0,1,1.81-1.93V31.06h.75v1.16a3.21,3.21,0,0,1,1.56.42l-.3.79A3,3,0,0,0,36.13,33c-.93,0-1.28.55-1.28,1,0,.63.45.94,1.49,1.37,1.24.51,1.86,1.13,1.86,2.2a2.1,2.1,0,0,1-1.89,2V40.9Z"/></svg>