<svg id="Layer_1" data-name="Layer 1" xmlns="http://www.w3.org/2000/svg" viewBox="0 0 70 70"><title>money</title><path d="M55.68,50.24H16.13a3.69,3.69,0,0,1-3.69-3.69V25.77a3.69,3.69,0,0,1,3.69-3.69H55.68a3.7,3.7,0,0,1,3.69,3.69V46.55A3.7,3.7,0,0,1,55.68,50.24ZM16.13,23.08a2.69,2.69,0,0,0-2.69,2.69V46.55a2.69,2.69,0,0,0,2.69,2.69H55.68a2.7,2.7,0,0,0,2.69-2.69V25.77a2.7,2.7,0,0,0-2.69-2.69Z"/><path d="M55.68,50.74H16.13a4.2,4.2,0,0,1-4.19-4.19V25.77a4.2,4.2,0,0,1,4.19-4.19H55.68a4.2,4.2,0,0,1,4.19,4.19V46.55A4.2,4.2,0,0,1,55.68,50.74ZM12.94,46.55a3.19,3.19,0,0,0,3.19,3.19H55.68a3.19,3.19,0,0,0,3.19-3.19v0a3.19,3.19,0,0,1-3.19,3.19H16.13A3.19,3.19,0,0,1,12.94,46.55Zm3.19-23a2.19,2.19,0,0,0-2.19,2.19V46.55a2.19,2.19,0,0,0,2.19,2.19H55.68a2.19,2.19,0,0,0,2.19-2.19V25.77a2.19,2.19,0,0,0-2.19-2.19Z"/><path d="M35.9,46.4A10.52,10.52,0,0,1,25.14,36.16,10.52,10.52,0,0,1,35.9,25.92,10.52,10.52,0,0,1,46.67,36.16,10.52,10.52,0,0,1,35.9,46.4Zm0-19.48a9.53,9.53,0,0,0-9.76,9.24A9.52,9.52,0,0,0,35.9,45.4a9.52,9.52,0,0,0,9.77-9.24A9.53,9.53,0,0,0,35.9,26.92Z"/><path d="M35.9,46.9A11,11,0,0,1,24.64,36.16,11,11,0,0,1,35.9,25.42,11,11,0,0,1,47.17,36.16,11,11,0,0,1,35.9,46.9ZM25.64,36.16A10,10,0,0,0,35.9,45.9a10,10,0,0,0,10.27-9.74A10,10,0,0,1,35.9,45.9,10,10,0,0,1,25.64,36.16ZM35.9,27.42a9,9,0,0,0-9.26,8.74A9,9,0,0,0,35.9,44.9a9,9,0,0,0,9.27-8.74A9,9,0,0,0,35.9,27.42Z"/><path d="M35.55,40.9V39.69a3.48,3.48,0,0,1-1.84-.53l.29-.8a3.19,3.19,0,0,0,1.73.52,1.27,1.27,0,0,0,1.43-1.18c0-.66-.47-1.07-1.36-1.43-1.22-.48-2-1-2-2.07a2,2,0,0,1,1.81-1.93V31.06h.75v1.16a3.21,3.21,0,0,1,1.56.42l-.3.79A3,3,0,0,0,36.13,33c-.93,0-1.28.55-1.28,1,0,.63.45.94,1.49,1.37,1.24.51,1.86,1.13,1.86,2.2a2.1,2.1,0,0,1-1.89,2V40.9Z"/><path d="M36.81,41.4H35.05V40.15a3.76,3.76,0,0,1-1.63-.58l-.3-.22.63-1.76.53.35a2.74,2.74,0,0,0,1.45.44c.56,0,.93-.27.93-.68s-.08-.57-1-1c-1.13-.45-2.29-1.1-2.29-2.54a2.39,2.39,0,0,1,1.81-2.33V30.56h1.75v1.2a3.64,3.64,0,0,1,1.31.45l.36.21-.65,1.74-.51-.3a2.42,2.42,0,0,0-1.26-.34c-.49,0-.78.2-.78.53s.09.46,1.18.91a2.86,2.86,0,0,1,2.17,2.66,2.52,2.52,0,0,1-1.89,2.43ZM36.35,36a1.93,1.93,0,0,1,1.31,1.73,1.51,1.51,0,0,1-.09.53,1.55,1.55,0,0,0,.13-.61C37.7,37,37.46,36.47,36.35,36Zm-2-2.16a1.67,1.67,0,0,0,0,.39c0,.56.25,1,1.47,1.53-.81-.37-1.44-.8-1.44-1.68A1.94,1.94,0,0,1,34.37,33.81Z"/></svg>