<svg id="Layer_1" data-name="Layer 1" xmlns="http://www.w3.org/2000/svg" viewBox="0 0 70 70"><title>pause</title><path d="M35.5,60A25.5,25.5,0,1,1,61,34.5,25.53,25.53,0,0,1,35.5,60Zm0-50A24.5,24.5,0,1,0,60,34.5,24.53,24.53,0,0,0,35.5,10Z"/><path d="M35.5,60.5a26,26,0,1,1,26-26A26,26,0,0,1,35.5,60.5Zm-25-26a25,25,0,0,0,50,0,25,25,0,0,1-50,0Zm25-24a24,24,0,1,0,24,24A24,24,0,0,0,35.5,10.5Z"/><rect x="28" y="22" width="1" height="25"/><rect x="27.5" y="21.5" width="2" height="26"/><rect x="42" y="22" width="1" height="25"/><rect x="41.5" y="21.5" width="2" height="26"/></svg>