<svg id="Layer_1" data-name="Layer 1" xmlns="http://www.w3.org/2000/svg" viewBox="0 0 70 70"><title>pen-alt</title><path d="M46.63,59.55H25.11A10.86,10.86,0,0,1,14.27,48.7V27.19A10.86,10.86,0,0,1,25.11,16.34H46.63v1H25.11a9.85,9.85,0,0,0-9.84,9.85V48.7a9.85,9.85,0,0,0,9.84,9.85H46.63a9.86,9.86,0,0,0,9.84-9.85V27.19h1V48.7A10.86,10.86,0,0,1,46.63,59.55Z"/><path d="M46.63,60.05H25.11A11.35,11.35,0,0,1,13.77,48.7V27.19A11.35,11.35,0,0,1,25.11,15.84h22v2h-22a9.36,9.36,0,0,0-9.34,9.35V48.7a9.36,9.36,0,0,0,9.34,9.35H46.63A9.36,9.36,0,0,0,56,48.7v-22h2v22A11.36,11.36,0,0,1,46.63,60.05ZM14.77,48.7A10.36,10.36,0,0,0,25.11,59.05h0A10.36,10.36,0,0,1,14.77,48.7Z"/><path d="M39,41.24H32.73V33.92L56.92,9.73,64,16.22Zm-5.22-1h4.81l24-24L57,11.11,33.73,34.33Z"/><path d="M39.16,41.74H32.23v-8L56.91,9,64.7,16.2Zm-5.93-1h0Zm1-1h4.1L61.81,16.26,57,11.81,34.23,34.54Zm29-23.51L42.75,36.74l20.5-20.51Z"/></svg>