<svg id="Layer_1" data-name="Layer 1" xmlns="http://www.w3.org/2000/svg" viewBox="0 0 70 70"><title>pin</title><path d="M34.88,61.69l-16-22.78.06,0c-.3-.38-.6-.78-.87-1.18A20.5,20.5,0,1,1,50.9,39.08l-.34.41ZM19.8,38.51,34.88,60l15.24-21.5a19.5,19.5,0,1,0-31.23-1.32q.46.67,1,1.32Z"/><path d="M34.88,62.56,18.17,38.79l0,0c-.19-.26-.38-.52-.56-.79A21,21,0,1,1,51.29,39.4l-.34.41Zm-5.77-10,5.77,8.21.64-.9-.64.9Zm-8.63-14,14.4,20.48L49.72,38.16A19,19,0,1,0,19.3,36.85c.3.43.62.87,1,1.29l.32.38ZM15,26.18a19.89,19.89,0,0,0,3.48,11.23c.22.33.45.65.7,1h0c-.25-.31-.48-.64-.7-1A19.89,19.89,0,0,1,15,26.18Zm40,0a20.17,20.17,0,0,1-1.07,6.46A20.17,20.17,0,0,0,55,26.14Z"/><rect x="18.56" y="37.69" width="1" height="1.18" transform="translate(-18.43 17.71) rotate(-34.78)"/><path d="M18.87,39.75,17.62,38l1.64-1.14,1.25,1.8ZM19,38.21l.11.15h0L19,38.21Z"/><path d="M35.23,37.15a10.5,10.5,0,1,1,10.5-10.5A10.51,10.51,0,0,1,35.23,37.15Zm0-20a9.5,9.5,0,1,0,9.5,9.5A9.52,9.52,0,0,0,35.23,17.15Z"/><path d="M35.23,37.65a11,11,0,1,1,11-11A11,11,0,0,1,35.23,37.65Zm-10-11a10,10,0,0,0,20,0,10,10,0,0,1-20,0Zm10-9a9,9,0,1,0,9,9A9,9,0,0,0,35.23,17.65Z"/></svg>