<svg id="Layer_1" data-name="Layer 1" xmlns="http://www.w3.org/2000/svg" viewBox="0 0 70 70"><title>pipe</title><polygon points="44.7 37.93 41.44 37.93 41.44 36.93 44.29 36.93 54.5 26.82 54.5 18.8 17.71 18.8 18.07 27.27 27.83 36.93 30.82 36.93 30.82 37.93 27.42 37.93 17.09 27.7 16.67 17.8 55.5 17.8 55.5 27.24 44.7 37.93"/><polygon points="35.56 56.56 29.73 56.56 29.73 37.43 30.73 37.43 30.73 55.56 35.16 55.56 41.34 49.66 41.34 37.43 42.34 37.43 42.34 50.09 35.56 56.56"/><rect x="17.55" y="26.47" width="37.45" height="1"/></svg>