<svg id="Layer_1" data-name="Layer 1" xmlns="http://www.w3.org/2000/svg" viewBox="0 0 70 70"><title>pipe</title><polygon points="44.7 37.93 41.44 37.93 41.44 36.93 44.29 36.93 54.5 26.82 54.5 18.8 17.71 18.8 18.07 27.27 27.83 36.93 30.82 36.93 30.82 37.93 27.42 37.93 17.09 27.7 16.67 17.8 55.5 17.8 55.5 27.24 44.7 37.93"/><path d="M44.91,38.43h-4v-2h3.14L54,26.62V19.3H18.24l.32,7.75L28,36.43h3.28v2H27.21L16.59,27.92,16.15,17.3H56V27.45Zm-3-1H44.5l8.25-8.17L44.5,37.43Zm-14.32,0-9.41-9.32ZM17.19,18.3l.22,5.2-.22-5.2h0Z"/><polygon points="35.56 56.56 29.73 56.56 29.73 37.43 30.73 37.43 30.73 55.56 35.16 55.56 41.34 49.66 41.34 37.43 42.34 37.43 42.34 50.09 35.56 56.56"/><path d="M35.76,57.06H29.23V36.93h2V55.06H35l5.88-5.61V36.93h2V50.3Zm-5.53-1h0Zm11.61-6.19-1.47,1.41Z"/><rect x="17.55" y="26.47" width="37.45" height="1"/><path d="M55.5,28H17.05V26H55.5ZM18.05,27h0Z"/></svg>