<svg id="Layer_1" data-name="Layer 1" xmlns="http://www.w3.org/2000/svg" viewBox="0 0 70 70"><title>play</title><path d="M35,60A25.5,25.5,0,1,1,60.5,34.5,25.53,25.53,0,0,1,35,60Zm0-50A24.5,24.5,0,1,0,59.5,34.5,24.53,24.53,0,0,0,35,10Z"/><path d="M35,60.5a26,26,0,1,1,26-26A26,26,0,0,1,35,60.5Zm-25-26a25,25,0,0,0,50,0,25,25,0,0,1-50,0Zm25-24a24,24,0,1,0,24,24A24,24,0,0,0,35,10.5Z"/><path d="M28.46,46.4V22.6L46.52,34.5Zm1-21.94V44.54l15.24-10Z"/><path d="M28,47.32V21.68L47.42,34.5Zm1.49-23.46L45.61,34.5,29.45,45.14,45.61,34.5ZM30,25.39V43.61L43.79,34.5Z"/></svg>