<svg id="Layer_1" data-name="Layer 1" xmlns="http://www.w3.org/2000/svg" viewBox="0 0 70 70"><title>search</title><path d="M34.19,61.5A25.5,25.5,0,1,1,59.69,36,25.53,25.53,0,0,1,34.19,61.5Zm0-50A24.5,24.5,0,1,0,58.69,36,24.53,24.53,0,0,0,34.19,11.5Z"/><path d="M34.19,62a26,26,0,1,1,26-26A26,26,0,0,1,34.19,62Zm-25-26a25,25,0,0,0,50,0,25,25,0,0,1-50,0Zm25-24a24,24,0,1,0,24,24A24,24,0,0,0,34.19,12Z"/><path d="M36.21,40.4a7.94,7.94,0,1,1,7.94-7.93A7.94,7.94,0,0,1,36.21,40.4Zm0-14.87a6.94,6.94,0,1,0,6.94,6.94A6.94,6.94,0,0,0,36.21,25.53Z"/><path d="M36.21,40.9a8.44,8.44,0,1,1,8.44-8.43A8.44,8.44,0,0,1,36.21,40.9Zm-7.43-8.43a7.44,7.44,0,0,0,14.87,0,7.44,7.44,0,0,1-14.87,0ZM36.21,26a6.44,6.44,0,1,0,6.44,6.44A6.45,6.45,0,0,0,36.21,26Z"/><rect x="20.64" y="42.04" width="13.12" height="1" transform="translate(-22.11 31.69) rotate(-45)"/><rect x="20.14" y="41.54" width="14.12" height="2" transform="translate(-22.11 31.69) rotate(-45)"/></svg>