<svg id="Layer_1" data-name="Layer 1" xmlns="http://www.w3.org/2000/svg" viewBox="0 0 70 70"><title>stop</title><path d="M36.47,59.48A25.5,25.5,0,1,1,62,34,25.53,25.53,0,0,1,36.47,59.48Zm0-50A24.5,24.5,0,1,0,61,34,24.53,24.53,0,0,0,36.47,9.48Z"/><path d="M36.47,60a26,26,0,1,1,26-26A26,26,0,0,1,36.47,60Zm-25-26a25,25,0,0,0,50,0,25,25,0,0,1-50,0Zm25-24a24,24,0,1,0,24,24A24,24,0,0,0,36.47,10Z"/><path d="M46.62,44.13H26.33V23.84H46.62Zm-19.29-1H45.62V24.84H27.33Z"/><path d="M47.12,44.63H25.83V23.34H47.12Zm-20.29-1H46.12v0Zm1-1H45.12V25.34H27.83Z"/></svg>