<svg id="Layer_1" data-name="Layer 1" xmlns="http://www.w3.org/2000/svg" viewBox="0 0 70 70"><title>tablet</title><path d="M48.77,54.05H24.1a4.89,4.89,0,0,1-4.88-4.88V21.68A4.89,4.89,0,0,1,24.1,16.8H48.77a4.89,4.89,0,0,1,4.88,4.88V49.17A4.89,4.89,0,0,1,48.77,54.05ZM24.1,17.8a3.88,3.88,0,0,0-3.88,3.88V49.17a3.88,3.88,0,0,0,3.88,3.88H48.77a3.88,3.88,0,0,0,3.88-3.88V21.68a3.88,3.88,0,0,0-3.88-3.88Z"/><path d="M37.05,52a2.69,2.69,0,1,1,2.68-2.69A2.69,2.69,0,0,1,37.05,52Zm0-4.38a1.69,1.69,0,1,0,1.68,1.69A1.69,1.69,0,0,0,37.05,47.6Z"/></svg>