<svg id="Layer_1" data-name="Layer 1" xmlns="http://www.w3.org/2000/svg" viewBox="0 0 70 70"><title>tablet</title><path d="M48.77,54.05H24.1a4.89,4.89,0,0,1-4.88-4.88V21.68A4.89,4.89,0,0,1,24.1,16.8H48.77a4.89,4.89,0,0,1,4.88,4.88V49.17A4.89,4.89,0,0,1,48.77,54.05ZM24.1,17.8a3.88,3.88,0,0,0-3.88,3.88V49.17a3.88,3.88,0,0,0,3.88,3.88H48.77a3.88,3.88,0,0,0,3.88-3.88V21.68a3.88,3.88,0,0,0-3.88-3.88Z"/><path d="M48.77,54.55H24.1a5.39,5.39,0,0,1-5.38-5.38V21.68A5.39,5.39,0,0,1,24.1,16.3H48.77a5.39,5.39,0,0,1,5.38,5.38V49.17A5.39,5.39,0,0,1,48.77,54.55ZM19.72,49.17a4.39,4.39,0,0,0,4.38,4.38H48.77a4.39,4.39,0,0,0,4.38-4.38v0a4.39,4.39,0,0,1-4.38,4.38H24.1A4.39,4.39,0,0,1,19.72,49.17ZM24.1,18.3a3.38,3.38,0,0,0-3.38,3.38V49.17a3.38,3.38,0,0,0,3.38,3.38H48.77a3.39,3.39,0,0,0,3.38-3.38V21.68a3.39,3.39,0,0,0-3.38-3.38Z"/><path d="M37.05,52a2.69,2.69,0,1,1,2.68-2.69A2.69,2.69,0,0,1,37.05,52Zm0-4.38a1.69,1.69,0,1,0,1.68,1.69A1.69,1.69,0,0,0,37.05,47.6Z"/><path d="M37.05,52.48a3.19,3.19,0,1,1,3.18-3.19A3.19,3.19,0,0,1,37.05,52.48Zm-2.19-3.19a2.19,2.19,0,1,0,4.37,0,2.19,2.19,0,1,1-4.37,0Zm2.19-1.19a1.19,1.19,0,1,0,1.18,1.19A1.19,1.19,0,0,0,37.05,48.1Z"/></svg>