<svg id="Layer_1" data-name="Layer 1" xmlns="http://www.w3.org/2000/svg" viewBox="0 0 70 70"><title>target</title><path d="M34.55,54.63A20.08,20.08,0,1,1,54.63,34.55,20.11,20.11,0,0,1,34.55,54.63Zm0-39.16A19.08,19.08,0,1,0,53.63,34.55,19.1,19.1,0,0,0,34.55,15.47Z"/><path d="M34.45,51A16.47,16.47,0,1,1,50.92,34.55,16.49,16.49,0,0,1,34.45,51Zm0-31.94A15.47,15.47,0,1,0,49.92,34.55,15.49,15.49,0,0,0,34.45,19.08Z"/><path d="M34.45,47.05A12.5,12.5,0,1,1,47,34.55,12.52,12.52,0,0,1,34.45,47.05Zm0-24A11.5,11.5,0,1,0,46,34.55,11.51,11.51,0,0,0,34.45,23.05Z"/><path d="M34.45,44.06A9.51,9.51,0,1,1,44,34.55,9.53,9.53,0,0,1,34.45,44.06Zm0-18A8.51,8.51,0,1,0,43,34.55,8.52,8.52,0,0,0,34.45,26Z"/></svg>