<svg id="Layer_1" data-name="Layer 1" xmlns="http://www.w3.org/2000/svg" viewBox="0 0 70 70"><title>target</title><path d="M34.55,54.63A20.08,20.08,0,1,1,54.63,34.55,20.11,20.11,0,0,1,34.55,54.63Zm0-39.16A19.08,19.08,0,1,0,53.63,34.55,19.1,19.1,0,0,0,34.55,15.47Z"/><path d="M34.55,55.13A20.58,20.58,0,1,1,55.13,34.55,20.6,20.6,0,0,1,34.55,55.13ZM15,34.55a19.58,19.58,0,0,0,39.16,0,19.58,19.58,0,0,1-39.16,0ZM34.55,16A18.58,18.58,0,1,0,53.13,34.55,18.59,18.59,0,0,0,34.55,16Z"/><path d="M34.45,51A16.47,16.47,0,1,1,50.92,34.55,16.49,16.49,0,0,1,34.45,51Zm0-31.94A15.47,15.47,0,1,0,49.92,34.55,15.49,15.49,0,0,0,34.45,19.08Z"/><path d="M34.45,51.52a17,17,0,1,1,17-17A17,17,0,0,1,34.45,51.52Zm-16-17a16,16,0,1,0,31.94,0,16,16,0,1,1-31.94,0Zm16-15a15,15,0,1,0,15,15A15,15,0,0,0,34.45,19.58Z"/><path d="M34.45,47.05A12.5,12.5,0,1,1,47,34.55,12.52,12.52,0,0,1,34.45,47.05Zm0-24A11.5,11.5,0,1,0,46,34.55,11.51,11.51,0,0,0,34.45,23.05Z"/><path d="M34.45,47.55a13,13,0,1,1,13-13A13,13,0,0,1,34.45,47.55Zm-12-13a12,12,0,0,0,24,0,12,12,0,0,1-24,0Zm12-11a11,11,0,1,0,11,11A11,11,0,0,0,34.45,23.55Z"/><path d="M34.45,44.06A9.51,9.51,0,1,1,44,34.55,9.53,9.53,0,0,1,34.45,44.06Zm0-18A8.51,8.51,0,1,0,43,34.55,8.52,8.52,0,0,0,34.45,26Z"/><path d="M34.45,44.56a10,10,0,1,1,10-10A10,10,0,0,1,34.45,44.56Zm-9-10a9,9,0,0,0,18,0,9,9,0,0,1-18,0Zm9-8a8,8,0,1,0,8,8A8,8,0,0,0,34.45,26.54Z"/></svg>