<svg id="Layer_1" data-name="Layer 1" xmlns="http://www.w3.org/2000/svg" viewBox="0 0 70 70"><title>video</title><path d="M55.52,53.08H17.88V17.8H55.52Zm-36.64-1H54.52V18.8H18.88Z"/><path d="M56,53.58H17.38V17.3H56Zm-37.64-1H55v0Zm1-1H54V19.3H19.38Z"/><path d="M27.44,27.53H18.15V18.24h9.29Zm-8.29-1h7.29V19.24H19.15Z"/><path d="M27.94,28H17.65V17.74H27.94Zm-9.29-1h8.29v0Zm1-1h6.29V19.74H19.65Z"/><path d="M27.44,35.82H18.15V26.53h9.29Zm-8.29-1h7.29V27.53H19.15Z"/><path d="M27.94,36.32H17.65V26H27.94Zm-9.29-1h8.29v0Zm1-1h6.29V28H19.65Z"/><path d="M27.44,44.11H18.15V34.82h9.29Zm-8.29-1h7.29V35.82H19.15Z"/><path d="M27.94,44.61H17.65V34.32H27.94Zm-9.29-1h8.29v0Zm1-1h6.29V36.32H19.65Z"/><path d="M27.44,52.47H18.15V43.18h9.29Zm-8.29-1h7.29V44.18H19.15Z"/><path d="M27.94,53H17.65V42.68H27.94Zm-9.29-1h8.29v0Zm1-1h6.29V44.68H19.65Z"/><path d="M55.52,27.47H46.23V18.18h9.29Zm-8.29-1h7.29V19.18H47.23Z"/><path d="M56,28H45.73V17.68H56Zm-9.29-1H55v0Zm1-1H54V19.68H47.73Z"/><path d="M55.52,35.76H46.23V26.47h9.29Zm-8.29-1h7.29V27.47H47.23Z"/><path d="M56,36.26H45.73V26H56Zm-9.29-1H55v0Zm1-1H54V28H47.73Z"/><path d="M55.52,44.05H46.23V34.76h9.29Zm-8.29-1h7.29V35.76H47.23Z"/><path d="M56,44.55H45.73V34.26H56Zm-9.29-1H55v0Zm1-1H54V36.26H47.73Z"/><path d="M55.52,52.4H46.23V43.11h9.29Zm-8.29-1h7.29V44.11H47.23Z"/><path d="M56,52.9H45.73V42.61H56Zm-9.29-1H55v0Zm1-1H54V44.61H47.73Z"/><rect x="26.94" y="34.79" width="19.79" height="1" transform="translate(-0.1 0.11) rotate(-0.17)"/><path d="M26.44,36.32v-2l20.79-.06v2Zm1-1,18.79-.06Z"/></svg>