<svg id="Layer_1" data-name="Layer 1" xmlns="http://www.w3.org/2000/svg" viewBox="0 0 70 70"><title>video</title><path d="M55.52,53.08H17.88V17.8H55.52Zm-36.64-1H54.52V18.8H18.88Z"/><path d="M27.44,27.53H18.15V18.24h9.29Zm-8.29-1h7.29V19.24H19.15Z"/><path d="M27.44,35.82H18.15V26.53h9.29Zm-8.29-1h7.29V27.53H19.15Z"/><path d="M27.44,44.11H18.15V34.82h9.29Zm-8.29-1h7.29V35.82H19.15Z"/><path d="M27.44,52.47H18.15V43.18h9.29Zm-8.29-1h7.29V44.18H19.15Z"/><path d="M55.52,27.47H46.23V18.18h9.29Zm-8.29-1h7.29V19.18H47.23Z"/><path d="M55.52,35.76H46.23V26.47h9.29Zm-8.29-1h7.29V27.47H47.23Z"/><path d="M55.52,44.05H46.23V34.76h9.29Zm-8.29-1h7.29V35.76H47.23Z"/><path d="M55.52,52.4H46.23V43.11h9.29Zm-8.29-1h7.29V44.11H47.23Z"/><rect x="26.94" y="34.79" width="19.79" height="1" transform="translate(-0.1 0.11) rotate(-0.17)"/></svg>