<svg id="Layer_1" data-name="Layer 1" xmlns="http://www.w3.org/2000/svg" viewBox="0 0 70 70"><title>view-alt</title><path d="M64,35.68c-.09-.09-9.42-9.2-26.53-8.95a50.29,50.29,0,0,0-7.52.67l-.16-1a52.07,52.07,0,0,1,7.67-.68C55,25.47,64.57,34.88,64.67,35Z"/><path d="M64,36.39,63.6,36c-.11-.11-9.33-9.07-26.16-8.8a50.57,50.57,0,0,0-7.45.66L29.5,28l-.33-2,.49-.08a52,52,0,0,1,7.75-.69C55.16,25,64.92,34.52,65,34.62l.35.36ZM38.12,26.22h-.7a51.78,51.78,0,0,0-5.6.39,51.78,51.78,0,0,1,5.6-.39c.68,0,1.34,0,2,0Z"/><path d="M10.72,35.69,10,35c.24-.21,5.79-5.33,16.34-7.87l.24,1C16.33,30.54,10.77,35.64,10.72,35.69Z"/><path d="M10.69,36.4,9.33,34.94l.36-.34c.24-.22,5.88-5.42,16.57-8l.48-.12.47,2-.48.11C16.62,31,11.11,36,11.06,36.06Zm.06-1.4h0A39.73,39.73,0,0,1,26,27.7h0A38.86,38.86,0,0,0,10.75,35Z"/><path d="M36.56,44.28C19.41,44.28,10.11,35.12,10,35l.71-.71c.09.09,9.12,9,25.83,9h.7a53,53,0,0,0,5.38-.36l.12,1a52.35,52.35,0,0,1-5.49.37Z"/><path d="M36.56,44.78c-17.35,0-26.8-9.31-26.89-9.4L9.31,35l1.42-1.4.35.35c.09.09,9.32,9.05,26.17,8.8a52,52,0,0,0,5.33-.36l.5-.06.24,2-.5.06a53.49,53.49,0,0,1-5.54.37Zm0-1h.7c1.66,0,3.32-.13,4.94-.31h0c-1.62.18-3.28.29-4.94.31Z"/><path d="M45.91,43.42l-.18-1c11.78-2.2,18.18-8.06,18.24-8.12l.68.73C64.39,35.29,58,41.16,45.91,43.42Z"/><path d="M45.51,44l-.37-2,.49-.1c11.58-2.16,17.94-7.94,18-8L64,33.6l1.37,1.46L65,35.4c-.27.26-6.75,6.22-19,8.51Zm.8-1.17h0c10.17-2,16.12-6.55,17.63-7.83h0A40.77,40.77,0,0,1,46.31,42.83Z"/><path d="M43,40.35l-.73-.68a6.36,6.36,0,0,0-9-9L32.61,30A7.36,7.36,0,0,1,43,40.35Z"/><path d="M43,41.06l-1.46-1.37.34-.36A5.86,5.86,0,0,0,33.64,31l-.37.35L31.9,29.93l.37-.35A7.86,7.86,0,0,1,43.38,40.69Zm1.46-5.73a6.86,6.86,0,0,1-.67,3A6.86,6.86,0,0,0,44.5,35.33Zm-6.86-6.86a6.86,6.86,0,0,1,6.86,6.86A6.86,6.86,0,0,0,33.33,30h0A6.81,6.81,0,0,1,37.64,28.47Z"/><rect x="42.43" y="24.17" width="1" height="32.26" transform="translate(-15.92 42.16) rotate(-45)"/><rect x="41.93" y="23.67" width="2" height="33.26" transform="translate(-15.92 42.16) rotate(-45)"/><rect x="25.73" y="16.1" width="1" height="14.98" transform="translate(-9 25.46) rotate(-45)"/><rect x="25.23" y="15.6" width="2" height="15.98" transform="translate(-9 25.46) rotate(-45)"/></svg>