<svg id="Layer_1" data-name="Layer 1" xmlns="http://www.w3.org/2000/svg" viewBox="0 0 70 70"><title>view</title><path d="M9.21,36.37l-.68-.74c.1-.09,9.8-9,27.38-9.23s27.16,9.15,27.25,9.25l-.71.7c-.09-.09-9.4-9.19-26.52-9S9.31,36.28,9.21,36.37Z"/><path d="M9.19,37.07,7.82,35.61l.37-.34c.09-.09,9.9-9.11,27.71-9.37s27.52,9.3,27.62,9.39l.35.36-1.42,1.41-.35-.35C62,36.62,53,27.9,36.59,27.9h-.66C19,28.15,9.65,36.65,9.55,36.73ZM36.24,26.9h-.32q-.86,0-1.68.06.82,0,1.68-.06Z"/><path d="M35.06,45C17.9,45,8.61,35.79,8.52,35.7L9.23,35c.09.1,9.37,9.22,26.52,8.95s26.62-8.87,26.72-9l.68.73c-.1.09-9.8,9-27.38,9.23Z"/><path d="M35.06,45.45c-17.35,0-26.81-9.3-26.9-9.4l-.35-.35,1.42-1.41.35.35c.09.09,9,8.81,25.45,8.81h.71C52.67,43.2,62,34.7,62.13,34.62l.36-.34,1.36,1.46-.36.34c-.1.09-9.9,9.1-27.72,9.36Zm2.42-1.06c-.56,0-1.14,0-1.72,0h0C36.34,44.44,36.92,44.42,37.48,44.39Z"/><path d="M36.13,43.36A7.36,7.36,0,1,1,43.49,36,7.37,7.37,0,0,1,36.13,43.36Zm0-13.72A6.36,6.36,0,1,0,42.49,36,6.37,6.37,0,0,0,36.13,29.64Z"/><path d="M36.13,43.86A7.86,7.86,0,1,1,44,36,7.87,7.87,0,0,1,36.13,43.86ZM29.27,36A6.86,6.86,0,1,0,43,36a6.86,6.86,0,1,1-13.72,0Zm6.86-5.86A5.86,5.86,0,1,0,42,36,5.87,5.87,0,0,0,36.13,30.14Z"/></svg>