<svg id="Layer_1" data-name="Layer 1" xmlns="http://www.w3.org/2000/svg" viewBox="0 0 70 70"><title>view-alt</title><path d="M64,35.68c-.09-.09-9.42-9.2-26.53-8.95a50.29,50.29,0,0,0-7.52.67l-.16-1a52.07,52.07,0,0,1,7.67-.68C55,25.47,64.57,34.88,64.67,35Z"/><path d="M10.72,35.69,10,35c.24-.21,5.79-5.33,16.34-7.87l.24,1C16.33,30.54,10.77,35.64,10.72,35.69Z"/><path d="M36.56,44.28C19.41,44.28,10.11,35.12,10,35l.71-.71c.09.09,9.12,9,25.83,9h.7a53,53,0,0,0,5.38-.36l.12,1a52.35,52.35,0,0,1-5.49.37Z"/><path d="M45.91,43.42l-.18-1c11.78-2.2,18.18-8.06,18.24-8.12l.68.73C64.39,35.29,58,41.16,45.91,43.42Z"/><path d="M43,40.35l-.73-.68a6.36,6.36,0,0,0-9-9L32.61,30A7.36,7.36,0,0,1,43,40.35Z"/><rect x="42.43" y="24.17" width="1" height="32.26" transform="translate(-15.92 42.16) rotate(-45)"/><rect x="25.73" y="16.1" width="1" height="14.98" transform="translate(-9 25.46) rotate(-45)"/></svg>