<svg id="Layer_1" data-name="Layer 1" xmlns="http://www.w3.org/2000/svg" viewBox="0 0 70 70"><title>view</title><path d="M9.21,36.37l-.68-.74c.1-.09,9.8-9,27.38-9.23s27.16,9.15,27.25,9.25l-.71.7c-.09-.09-9.4-9.19-26.52-9S9.31,36.28,9.21,36.37Z"/><path d="M35.06,45C17.9,45,8.61,35.79,8.52,35.7L9.23,35c.09.1,9.37,9.22,26.52,8.95s26.62-8.87,26.72-9l.68.73c-.1.09-9.8,9-27.38,9.23Z"/><path d="M36.13,43.36A7.36,7.36,0,1,1,43.49,36,7.37,7.37,0,0,1,36.13,43.36Zm0-13.72A6.36,6.36,0,1,0,42.49,36,6.37,6.37,0,0,0,36.13,29.64Z"/></svg>