<svg id="Layer_1" data-name="Layer 1" xmlns="http://www.w3.org/2000/svg" viewBox="0 0 70 70"><title>warning</title><path d="M58.1,52.92H11.9L35,12.9Zm-44.47-1H56.37L35,14.9Z"/><path d="M59,53.42H11L35,11.9Zm-46.21-1H57.24L35.36,14.52l21.88,37.9H12.76l21.88-37.9Zm1.74-1h41L35,15.9Z"/><rect x="34.5" y="25.77" width="1" height="15.1"/><rect x="34" y="25.27" width="2" height="16.1"/><path d="M35,47.42a2.27,2.27,0,1,1,2.27-2.27A2.27,2.27,0,0,1,35,47.42Zm0-3.53a1.27,1.27,0,1,0,1.27,1.26A1.27,1.27,0,0,0,35,43.89Z"/><path d="M35,47.92a2.77,2.77,0,1,1,2.77-2.77A2.77,2.77,0,0,1,35,47.92Zm-1.77-2.77a1.77,1.77,0,0,0,3.54,0,1.77,1.77,0,0,1-3.54,0ZM35,44.39a.77.77,0,1,0,.77.76A.77.77,0,0,0,35,44.39Z"/></svg>